<svg width="1843" height="68" viewBox="0 0 1843 68" fill="none" xmlns="http://www.w3.org/2000/svg">
<rect x="571.923" y="2.97949" width="399.608" height="39.8247" rx="19.9123" fill="#565FF2"/>
<rect x="1070.66" width="399.608" height="39.8247" rx="19.9123" fill="#565FF2"/>
<rect x="0.596191" y="28.1748" width="399.608" height="39.8247" rx="19.9123" fill="#565FF2"/>
<rect x="1443.39" y="19.7773" width="399.608" height="39.8247" rx="19.9123" fill="#565FF2"/>
<rect x="75.7466" y="7.04395" width="399.608" height="39.8247" rx="19.9123" fill="#0F0F0F"/>
<rect x="847.438" y="17.6094" width="399.608" height="39.8247" rx="19.9123" fill="#0F0F0F"/>
<rect x="1443.39" width="399.608" height="39.8247" rx="19.9123" fill="#0F0F0F"/>
<rect x="291.619" y="60.9561" width="36.0319" height="355.472" rx="18.0159" transform="rotate(-90 291.619 60.9561)" fill="#CAFF54"/>
<rect y="68" width="60.9562" height="129.425" rx="30.4781" transform="rotate(-90 0 68)" fill="#CAFF54"/>
<rect x="900.52" y="60.9561" width="60.9562" height="129.425" rx="30.4781" transform="rotate(-90 900.52 60.9561)" fill="#CAFF54"/>
<rect x="900.52" y="60.9561" width="60.9562" height="129.425" rx="30.4781" transform="rotate(-90 900.52 60.9561)" fill="#CAFF54"/>
<rect x="1342.61" y="60.9561" width="60.9562" height="129.425" rx="30.4781" transform="rotate(-90 1342.61 60.9561)" fill="#CAFF54"/>
</svg>
