<?xml version="1.0" encoding="UTF-8" standalone="no"?>
<svg
   width="1834"
   height="575"
   viewBox="0 0 1834 575"
   fill="none"
   version="1.1"
   id="svg11"
   sodipodi:docname="info.svg"
   inkscape:export-filename="info.svg"
   inkscape:export-xdpi="96"
   inkscape:export-ydpi="96"
   xmlns:inkscape="http://www.inkscape.org/namespaces/inkscape"
   xmlns:sodipodi="http://sodipodi.sourceforge.net/DTD/sodipodi-0.dtd"
   xmlns="http://www.w3.org/2000/svg"
   xmlns:svg="http://www.w3.org/2000/svg">
  <sodipodi:namedview
     id="namedview11"
     pagecolor="#ffffff"
     bordercolor="#000000"
     borderopacity="0.25"
     inkscape:showpageshadow="2"
     inkscape:pageopacity="0.0"
     inkscape:pagecheckerboard="0"
     inkscape:deskcolor="#d1d1d1" />
  <g
     clip-path="url(#clip0_135_2)"
     id="g8"
     transform="matrix(0.98003585,0,0,0.97875679,1.2457627,0.177449)"
     inkscape:export-filename="info.svg"
     inkscape:export-xdpi="96"
     inkscape:export-ydpi="96">
    <rect
       width="1872"
       height="588"
       fill="#f4f6ed"
       id="rect1"
       x="0"
       y="0" />
    <rect
       y="-233"
       width="280"
       height="596"
       rx="40"
       fill="#caff54"
       id="rect2"
       x="0" />
    <rect
       x="141"
       y="-172"
       width="425"
       height="535"
       rx="40"
       fill="#0f0f0f"
       id="rect3" />
    <g
       filter="url(#filter0_di_135_2)"
       id="g4">
      <rect
         x="427"
         y="-83"
         width="1445"
         height="446"
         rx="40"
         fill="#565ff2"
         shape-rendering="crispEdges"
         id="rect4" />
      <path
         d="M 1087.64,56 V 22.16 h 10.37 v 25.296 h 13.73 V 56 Z m 40.37,0.576 c -2.81,0 -5.26,-0.512 -7.34,-1.536 -2.08,-1.056 -3.7,-2.544 -4.85,-4.464 -1.12,-1.92 -1.68,-4.192 -1.68,-6.816 0,-2.656 0.56,-4.928 1.68,-6.816 1.15,-1.92 2.77,-3.392 4.85,-4.416 2.08,-1.056 4.53,-1.584 7.34,-1.584 2.82,0 5.25,0.528 7.3,1.584 2.08,1.024 3.68,2.496 4.8,4.416 1.15,1.888 1.73,4.16 1.73,6.816 0,2.624 -0.58,4.896 -1.73,6.816 -1.12,1.92 -2.72,3.408 -4.8,4.464 -2.05,1.024 -4.48,1.536 -7.3,1.536 z m 0,-7.344 c 1.15,0 2.07,-0.416 2.74,-1.248 0.67,-0.832 1.01,-2.24 1.01,-4.224 0,-1.984 -0.34,-3.392 -1.01,-4.224 -0.67,-0.832 -1.59,-1.248 -2.74,-1.248 -1.18,0 -2.11,0.416 -2.78,1.248 -0.67,0.832 -1.01,2.24 -1.01,4.224 0,1.984 0.34,3.392 1.01,4.224 0.67,0.832 1.6,1.248 2.78,1.248 z m 30.43,7.344 c -2.79,0 -5.23,-0.512 -7.35,-1.536 -2.11,-1.024 -3.76,-2.496 -4.94,-4.416 -1.15,-1.92 -1.73,-4.208 -1.73,-6.864 0,-2.688 0.58,-4.976 1.73,-6.864 1.18,-1.92 2.83,-3.392 4.94,-4.416 2.12,-1.024 4.56,-1.536 7.35,-1.536 1.69,0 3.36,0.224 4.99,0.672 1.66,0.416 2.99,1.008 3.98,1.776 l -2.68,6.768 c -0.71,-0.544 -1.54,-0.96 -2.5,-1.248 -0.93,-0.32 -1.82,-0.48 -2.69,-0.48 -1.53,0 -2.73,0.448 -3.6,1.344 -0.83,0.896 -1.25,2.224 -1.25,3.984 0,1.76 0.42,3.088 1.25,3.984 0.87,0.896 2.07,1.344 3.6,1.344 0.83,0 1.73,-0.16 2.69,-0.48 0.96,-0.32 1.79,-0.736 2.5,-1.248 l 2.68,6.768 c -1.02,0.768 -2.35,1.376 -3.98,1.824 -1.63,0.416 -3.3,0.624 -4.99,0.624 z m 21.62,0 c -2.08,0 -3.93,-0.512 -5.57,-1.536 -1.6,-1.024 -2.86,-2.496 -3.79,-4.416 -0.89,-1.92 -1.34,-4.208 -1.34,-6.864 0,-2.656 0.45,-4.944 1.34,-6.864 0.93,-1.92 2.19,-3.392 3.79,-4.416 1.64,-1.024 3.49,-1.536 5.57,-1.536 1.79,0 3.44,0.416 4.95,1.248 1.53,0.832 2.52,1.92 2.97,3.264 h -0.48 l 0.58,-3.936 h 9.6 c -0.13,1.152 -0.23,2.32 -0.29,3.504 -0.06,1.152 -0.1,2.304 -0.1,3.456 V 56 h -9.88 l -0.1,-3.648 h 0.58 c -0.48,1.248 -1.48,2.272 -2.98,3.072 -1.47,0.768 -3.09,1.152 -4.85,1.152 z m 3.36,-7.344 c 1.19,0 2.15,-0.416 2.88,-1.248 0.77,-0.832 1.15,-2.24 1.15,-4.224 0,-1.984 -0.38,-3.392 -1.15,-4.224 -0.73,-0.832 -1.69,-1.248 -2.88,-1.248 -1.18,0 -2.16,0.416 -2.93,1.248 -0.73,0.832 -1.1,2.24 -1.1,4.224 0,1.984 0.37,3.392 1.1,4.224 0.74,0.832 1.72,1.248 2.93,1.248 z M 1201.91,56 V 20.672 h 9.99 V 56 Z m -199.84,60.48 c -2.722,0 -5.234,-0.336 -7.538,-1.008 -2.272,-0.704 -4.224,-1.664 -5.856,-2.88 l 1.92,-4.848 c 1.088,0.768 2.224,1.424 3.408,1.968 1.184,0.512 2.448,0.912 3.792,1.2 1.344,0.256 2.764,0.384 4.274,0.384 2.53,0 4.35,-0.416 5.47,-1.248 1.12,-0.832 1.68,-1.92 1.68,-3.264 0,-1.184 -0.38,-2.08 -1.15,-2.688 -0.77,-0.64 -2.15,-1.168 -4.13,-1.584 l -5.424,-1.104 c -3.104,-0.64 -5.424,-1.712 -6.96,-3.216 -1.536,-1.504 -2.304,-3.52 -2.304,-6.048 0,-2.112 0.56,-3.952 1.68,-5.52 1.12,-1.568 2.688,-2.784 4.704,-3.648 2.016,-0.864 4.364,-1.296 7.054,-1.296 2.4,0 4.63,0.352 6.67,1.056 2.05,0.672 3.76,1.648 5.14,2.928 l -1.92,4.608 c -1.38,-1.152 -2.88,-2 -4.51,-2.544 -1.63,-0.576 -3.46,-0.864 -5.47,-0.864 -2.28,0 -4.052,0.448 -5.332,1.344 -1.248,0.864 -1.872,2.064 -1.872,3.6 0,1.184 0.384,2.128 1.152,2.832 0.8,0.704 2.144,1.248 4.032,1.632 l 5.38,1.056 c 3.2,0.64 5.56,1.696 7.1,3.168 1.54,1.44 2.3,3.392 2.3,5.856 0,2.016 -0.54,3.792 -1.63,5.328 -1.09,1.504 -2.62,2.688 -4.61,3.552 -1.98,0.832 -4.33,1.248 -7.05,1.248 z m 28.01,0 c -2.11,0 -3.97,-0.496 -5.57,-1.488 -1.6,-1.024 -2.85,-2.48 -3.74,-4.368 -0.9,-1.888 -1.35,-4.144 -1.35,-6.768 0,-2.624 0.45,-4.864 1.35,-6.72 0.89,-1.888 2.14,-3.328 3.74,-4.32 1.6,-1.024 3.46,-1.536 5.57,-1.536 2.05,0 3.84,0.512 5.37,1.536 1.57,0.992 2.61,2.336 3.12,4.032 h -0.52 l 0.52,-5.088 h 5.76 c -0.09,0.992 -0.19,2 -0.28,3.024 -0.07,1.024 -0.1,2.032 -0.1,3.024 V 116 H 1038 l -0.05,-4.992 h 0.58 c -0.52,1.664 -1.56,2.992 -3.12,3.984 -1.57,0.992 -3.35,1.488 -5.33,1.488 z m 1.68,-4.608 c 1.89,0 3.41,-0.656 4.56,-1.968 1.15,-1.344 1.73,-3.36 1.73,-6.048 0,-2.688 -0.58,-4.688 -1.73,-6 -1.15,-1.312 -2.67,-1.968 -4.56,-1.968 -1.89,0 -3.41,0.656 -4.56,1.968 -1.15,1.312 -1.73,3.312 -1.73,6 0,2.688 0.56,4.704 1.68,6.048 1.15,1.312 2.69,1.968 4.61,1.968 z m -6,-23.904 -2.98,-0.192 c 0.16,-2.272 0.77,-4.016 1.83,-5.232 1.05,-1.248 2.36,-1.872 3.93,-1.872 0.71,0 1.36,0.144 1.97,0.432 0.61,0.288 1.3,0.72 2.06,1.296 0.68,0.512 1.22,0.88 1.64,1.104 0.44,0.224 0.88,0.336 1.29,0.336 1.6,0 2.58,-1.12 2.93,-3.36 l 2.98,0.192 c -0.13,2.272 -0.72,4.032 -1.78,5.28 -1.06,1.216 -2.37,1.824 -3.94,1.824 -0.7,0 -1.37,-0.144 -2.01,-0.432 -0.61,-0.288 -1.31,-0.736 -2.11,-1.344 -0.61,-0.512 -1.14,-0.864 -1.59,-1.056 -0.41,-0.224 -0.85,-0.336 -1.29,-0.336 -0.87,0 -1.54,0.304 -2.02,0.912 -0.45,0.576 -0.75,1.392 -0.91,2.448 z m 35.67,28.512 c -2.5,0 -4.66,-0.512 -6.48,-1.536 -1.83,-1.024 -3.25,-2.48 -4.28,-4.368 -0.99,-1.888 -1.48,-4.128 -1.48,-6.72 0,-2.592 0.49,-4.816 1.48,-6.672 1.03,-1.888 2.45,-3.344 4.28,-4.368 1.82,-1.024 3.98,-1.536 6.48,-1.536 2.49,0 4.65,0.512 6.48,1.536 1.85,1.024 3.28,2.48 4.27,4.368 1.02,1.856 1.53,4.08 1.53,6.672 0,2.592 -0.51,4.832 -1.53,6.72 -0.99,1.888 -2.42,3.344 -4.27,4.368 -1.83,1.024 -3.99,1.536 -6.48,1.536 z m 0,-4.608 c 1.88,0 3.39,-0.656 4.51,-1.968 1.12,-1.344 1.68,-3.36 1.68,-6.048 0,-2.688 -0.56,-4.688 -1.68,-6 -1.12,-1.312 -2.63,-1.968 -4.51,-1.968 -1.89,0 -3.4,0.656 -4.52,1.968 -1.12,1.312 -1.68,3.312 -1.68,6 0,2.688 0.56,4.704 1.68,6.048 1.12,1.312 2.63,1.968 4.52,1.968 z m 46.85,4.608 c -3.52,0 -6.54,-0.704 -9.07,-2.112 -2.49,-1.44 -4.41,-3.456 -5.76,-6.048 -1.34,-2.624 -2.01,-5.712 -2.01,-9.264 0,-3.552 0.67,-6.624 2.01,-9.216 1.35,-2.592 3.27,-4.592 5.76,-6 2.53,-1.44 5.55,-2.16 9.07,-2.16 2.37,0 4.5,0.336 6.39,1.008 1.92,0.672 3.57,1.664 4.94,2.976 l -2.01,4.896 c -1.51,-1.216 -2.96,-2.08 -4.37,-2.592 -1.38,-0.544 -2.96,-0.816 -4.75,-0.816 -3.43,0 -6.05,1.04 -7.88,3.12 -1.79,2.048 -2.68,4.976 -2.68,8.784 0,3.808 0.89,6.752 2.68,8.832 1.83,2.08 4.45,3.12 7.88,3.12 1.79,0 3.37,-0.256 4.75,-0.768 1.41,-0.544 2.86,-1.44 4.37,-2.688 l 2.01,4.896 c -1.37,1.28 -3.02,2.272 -4.94,2.976 -1.89,0.704 -4.02,1.056 -6.39,1.056 z m 25.16,0 c -2.12,0 -3.97,-0.496 -5.57,-1.488 -1.6,-1.024 -2.85,-2.48 -3.75,-4.368 -0.89,-1.888 -1.34,-4.144 -1.34,-6.768 0,-2.624 0.45,-4.864 1.34,-6.72 0.9,-1.888 2.15,-3.328 3.75,-4.32 1.6,-1.024 3.45,-1.536 5.57,-1.536 2.04,0 3.84,0.512 5.37,1.536 1.57,0.992 2.61,2.336 3.12,4.032 h -0.53 l 0.53,-5.088 h 5.76 c -0.09,0.992 -0.19,2 -0.29,3.024 -0.06,1.024 -0.09,2.032 -0.09,3.024 V 116 h -5.95 l -0.05,-4.992 h 0.57 c -0.51,1.664 -1.55,2.992 -3.12,3.984 -1.56,0.992 -3.34,1.488 -5.32,1.488 z m 1.68,-4.608 c 1.88,0 3.4,-0.656 4.56,-1.968 1.15,-1.344 1.72,-3.36 1.72,-6.048 0,-2.688 -0.57,-4.688 -1.72,-6 -1.16,-1.312 -2.68,-1.968 -4.56,-1.968 -1.89,0 -3.41,0.656 -4.56,1.968 -1.16,1.312 -1.73,3.312 -1.73,6 0,2.688 0.56,4.704 1.68,6.048 1.15,1.312 2.69,1.968 4.61,1.968 z M 1153.79,116 V 97.952 c 0,-1.024 -0.03,-2.064 -0.09,-3.12 -0.03,-1.056 -0.11,-2.08 -0.24,-3.072 h 5.81 l 0.67,6.624 h -0.96 c 0.32,-1.6 0.85,-2.928 1.58,-3.984 0.77,-1.056 1.7,-1.84 2.79,-2.352 1.08,-0.512 2.27,-0.768 3.55,-0.768 0.57,0 1.04,0.032 1.39,0.096 0.35,0.032 0.7,0.112 1.06,0.24 l -0.05,5.28 c -0.61,-0.256 -1.14,-0.416 -1.59,-0.48 -0.41,-0.064 -0.94,-0.096 -1.58,-0.096 -1.38,0 -2.54,0.288 -3.5,0.864 -0.93,0.576 -1.64,1.376 -2.12,2.4 -0.44,1.024 -0.67,2.192 -0.67,3.504 V 116 Z m 18.9,0 V 80.672 h 6 V 116 Z m 23.46,0.48 c -2.5,0 -4.66,-0.512 -6.48,-1.536 -1.83,-1.024 -3.25,-2.48 -4.28,-4.368 -0.99,-1.888 -1.48,-4.128 -1.48,-6.72 0,-2.592 0.49,-4.816 1.48,-6.672 1.03,-1.888 2.45,-3.344 4.28,-4.368 1.82,-1.024 3.98,-1.536 6.48,-1.536 2.49,0 4.65,0.512 6.48,1.536 1.85,1.024 3.28,2.48 4.27,4.368 1.02,1.856 1.53,4.08 1.53,6.672 0,2.592 -0.51,4.832 -1.53,6.72 -0.99,1.888 -2.42,3.344 -4.27,4.368 -1.83,1.024 -3.99,1.536 -6.48,1.536 z m 0,-4.608 c 1.88,0 3.39,-0.656 4.51,-1.968 1.12,-1.344 1.68,-3.36 1.68,-6.048 0,-2.688 -0.56,-4.688 -1.68,-6 -1.12,-1.312 -2.63,-1.968 -4.51,-1.968 -1.89,0 -3.4,0.656 -4.52,1.968 -1.12,1.312 -1.68,3.312 -1.68,6 0,2.688 0.56,4.704 1.68,6.048 1.12,1.312 2.63,1.968 4.52,1.968 z m 26.1,4.608 c -2.08,0 -4,-0.24 -5.76,-0.72 -1.73,-0.512 -3.19,-1.216 -4.37,-2.112 l 1.68,-4.032 c 1.22,0.832 2.56,1.472 4.03,1.92 1.47,0.448 2.96,0.672 4.47,0.672 1.6,0 2.78,-0.272 3.55,-0.816 0.8,-0.544 1.2,-1.28 1.2,-2.208 0,-0.736 -0.26,-1.312 -0.77,-1.728 -0.48,-0.448 -1.26,-0.784 -2.35,-1.008 l -4.8,-0.912 c -2.05,-0.448 -3.62,-1.216 -4.71,-2.304 -1.05,-1.088 -1.58,-2.512 -1.58,-4.272 0,-1.504 0.4,-2.832 1.2,-3.984 0.83,-1.152 2,-2.048 3.5,-2.688 1.54,-0.672 3.33,-1.008 5.38,-1.008 1.79,0 3.47,0.24 5.04,0.72 1.6,0.48 2.94,1.2 4.03,2.16 l -1.73,3.888 c -0.99,-0.8 -2.12,-1.424 -3.4,-1.872 -1.28,-0.448 -2.53,-0.672 -3.75,-0.672 -1.66,0 -2.88,0.304 -3.65,0.912 -0.76,0.576 -1.15,1.328 -1.15,2.256 0,0.704 0.23,1.296 0.67,1.776 0.48,0.448 1.22,0.784 2.21,1.008 l 4.8,0.912 c 2.15,0.416 3.76,1.152 4.85,2.208 1.12,1.024 1.68,2.432 1.68,4.224 0,1.6 -0.43,2.976 -1.3,4.128 -0.86,1.152 -2.06,2.032 -3.6,2.64 -1.53,0.608 -3.32,0.912 -5.37,0.912 z m 15.88,2.352 h -4.94 l 12.62,-38.928 h 4.95 z m 27,-2.352 c -2.72,0 -5.23,-0.336 -7.54,-1.008 -2.27,-0.704 -4.22,-1.664 -5.85,-2.88 l 1.92,-4.848 c 1.09,0.768 2.22,1.424 3.41,1.968 1.18,0.512 2.44,0.912 3.79,1.2 1.34,0.256 2.77,0.384 4.27,0.384 2.53,0 4.35,-0.416 5.47,-1.248 1.12,-0.832 1.68,-1.92 1.68,-3.264 0,-1.184 -0.38,-2.08 -1.15,-2.688 -0.77,-0.64 -2.14,-1.168 -4.13,-1.584 l -5.42,-1.104 c -3.11,-0.64 -5.43,-1.712 -6.96,-3.216 -1.54,-1.504 -2.31,-3.52 -2.31,-6.048 0,-2.112 0.56,-3.952 1.68,-5.52 1.12,-1.568 2.69,-2.784 4.71,-3.648 2.01,-0.864 4.37,-1.296 7.05,-1.296 2.4,0 4.63,0.352 6.68,1.056 2.04,0.672 3.76,1.648 5.13,2.928 l -1.92,4.608 c -1.37,-1.152 -2.88,-2 -4.51,-2.544 -1.63,-0.576 -3.46,-0.864 -5.47,-0.864 -2.27,0 -4.05,0.448 -5.33,1.344 -1.25,0.864 -1.87,2.064 -1.87,3.6 0,1.184 0.38,2.128 1.15,2.832 0.8,0.704 2.14,1.248 4.03,1.632 l 5.38,1.056 c 3.2,0.64 5.57,1.696 7.1,3.168 1.54,1.44 2.31,3.392 2.31,5.856 0,2.016 -0.55,3.792 -1.64,5.328 -1.08,1.504 -2.62,2.688 -4.6,3.552 -1.99,0.832 -4.34,1.248 -7.06,1.248 z M 1284.26,116 V 82.16 h 15.02 c 3.72,0 6.55,0.896 8.5,2.688 1.95,1.792 2.93,4.256 2.93,7.392 0,3.104 -0.98,5.568 -2.93,7.392 -1.95,1.824 -4.78,2.736 -8.5,2.736 h -8.83 V 116 Z m 6.19,-18.528 h 8.11 c 2.05,0 3.59,-0.448 4.61,-1.344 1.03,-0.928 1.54,-2.224 1.54,-3.888 0,-1.664 -0.51,-2.944 -1.54,-3.84 -1.02,-0.928 -2.56,-1.392 -4.61,-1.392 h -8.11 z M 1091.35,236 v -33.84 h 14.35 c 4.09,0 7.53,0.688 10.32,2.064 2.81,1.376 4.94,3.328 6.38,5.856 1.44,2.496 2.16,5.488 2.16,8.976 0,3.456 -0.72,6.448 -2.16,8.976 -1.44,2.528 -3.57,4.496 -6.38,5.904 -2.79,1.376 -6.23,2.064 -10.32,2.064 z m 10.36,-8.352 h 3.36 c 3.14,0 5.46,-0.704 6.96,-2.112 1.51,-1.408 2.26,-3.568 2.26,-6.48 0,-2.944 -0.75,-5.104 -2.26,-6.48 -1.5,-1.376 -3.82,-2.064 -6.96,-2.064 h -3.36 z m 36.82,8.928 c -2.08,0 -3.93,-0.512 -5.57,-1.536 -1.6,-1.024 -2.86,-2.496 -3.79,-4.416 -0.89,-1.92 -1.34,-4.208 -1.34,-6.864 0,-2.656 0.45,-4.944 1.34,-6.864 0.93,-1.92 2.19,-3.392 3.79,-4.416 1.64,-1.024 3.49,-1.536 5.57,-1.536 1.79,0 3.44,0.416 4.95,1.248 1.53,0.832 2.52,1.92 2.97,3.264 h -0.48 l 0.58,-3.936 h 9.6 c -0.13,1.152 -0.23,2.32 -0.29,3.504 -0.06,1.152 -0.1,2.304 -0.1,3.456 V 236 h -9.88 l -0.1,-3.648 h 0.58 c -0.48,1.248 -1.48,2.272 -2.98,3.072 -1.47,0.768 -3.09,1.152 -4.85,1.152 z m 3.36,-7.344 c 1.19,0 2.15,-0.416 2.88,-1.248 0.77,-0.832 1.15,-2.24 1.15,-4.224 0,-1.984 -0.38,-3.392 -1.15,-4.224 -0.73,-0.832 -1.69,-1.248 -2.88,-1.248 -1.18,0 -2.16,0.416 -2.93,1.248 -0.73,0.832 -1.1,2.24 -1.1,4.224 0,1.984 0.37,3.392 1.1,4.224 0.74,0.832 1.72,1.248 2.93,1.248 z m 32.17,7.344 c -3.81,0 -6.65,-0.864 -8.54,-2.592 -1.89,-1.76 -2.83,-4.416 -2.83,-7.968 v -7.2 h -4.52 v -7.296 h 4.52 V 206 l 9.98,-2.304 v 7.824 h 5.66 v 7.296 h -5.66 v 6.912 c 0,1.248 0.3,2.048 0.91,2.4 0.64,0.352 1.35,0.528 2.11,0.528 0.55,0 1,-0.032 1.35,-0.096 0.38,-0.064 0.81,-0.176 1.29,-0.336 v 7.584 c -0.76,0.32 -1.52,0.528 -2.25,0.624 -0.71,0.096 -1.38,0.144 -2.02,0.144 z m 16.83,0 c -2.08,0 -3.94,-0.512 -5.57,-1.536 -1.6,-1.024 -2.86,-2.496 -3.79,-4.416 -0.9,-1.92 -1.34,-4.208 -1.34,-6.864 0,-2.656 0.44,-4.944 1.34,-6.864 0.93,-1.92 2.19,-3.392 3.79,-4.416 1.63,-1.024 3.49,-1.536 5.57,-1.536 1.79,0 3.44,0.416 4.94,1.248 1.54,0.832 2.53,1.92 2.98,3.264 h -0.48 l 0.58,-3.936 h 9.6 c -0.13,1.152 -0.23,2.32 -0.29,3.504 -0.07,1.152 -0.1,2.304 -0.1,3.456 V 236 h -9.89 l -0.09,-3.648 h 0.57 c -0.48,1.248 -1.47,2.272 -2.97,3.072 -1.47,0.768 -3.09,1.152 -4.85,1.152 z m 3.36,-7.344 c 1.18,0 2.14,-0.416 2.88,-1.248 0.77,-0.832 1.15,-2.24 1.15,-4.224 0,-1.984 -0.38,-3.392 -1.15,-4.224 -0.74,-0.832 -1.7,-1.248 -2.88,-1.248 -1.18,0 -2.16,0.416 -2.93,1.248 -0.73,0.832 -1.1,2.24 -1.1,4.224 0,1.984 0.37,3.392 1.1,4.224 0.74,0.832 1.71,1.248 2.93,1.248 z m -425.547,67.296 c -2.368,0 -4.656,-0.336 -6.864,-1.008 -2.176,-0.672 -3.936,-1.6 -5.28,-2.784 l 2.352,-5.568 c 1.44,1.056 2.96,1.856 4.56,2.4 1.6,0.512 3.248,0.768 4.944,0.768 1.984,0 3.472,-0.368 4.464,-1.104 0.992,-0.736 1.488,-1.824 1.488,-3.264 0,-1.344 -0.48,-2.352 -1.44,-3.024 -0.928,-0.704 -2.32,-1.056 -4.176,-1.056 h -5.664 v -5.904 h 4.992 c 1.6,0 2.88,-0.368 3.84,-1.104 0.96,-0.768 1.44,-1.808 1.44,-3.12 0,-1.28 -0.448,-2.256 -1.344,-2.928 -0.896,-0.672 -2.192,-1.008 -3.888,-1.008 -3.232,0 -6.112,1.072 -8.64,3.216 l -2.4,-5.472 c 1.44,-1.248 3.184,-2.208 5.232,-2.88 2.08,-0.704 4.256,-1.056 6.528,-1.056 3.648,0 6.496,0.816 8.544,2.448 2.08,1.6 3.12,3.84 3.12,6.72 0,1.984 -0.56,3.696 -1.68,5.136 -1.12,1.408 -2.656,2.352 -4.608,2.832 v -0.624 c 2.304,0.384 4.096,1.328 5.376,2.832 1.28,1.504 1.92,3.392 1.92,5.664 0,3.072 -1.152,5.488 -3.456,7.248 -2.272,1.76 -5.392,2.64 -9.36,2.64 z m 29.502,0 c -4.064,0 -7.2,-1.52 -9.408,-4.56 -2.176,-3.072 -3.264,-7.392 -3.264,-12.96 0,-5.664 1.088,-9.968 3.264,-12.912 2.208,-2.976 5.344,-4.464 9.408,-4.464 4.096,0 7.232,1.488 9.408,4.464 2.176,2.944 3.264,7.232 3.264,12.864 0,5.6 -1.088,9.936 -3.264,13.008 -2.176,3.04 -5.312,4.56 -9.408,4.56 z m 0,-6.048 c 1.856,0 3.232,-0.912 4.128,-2.736 0.928,-1.856 1.392,-4.784 1.392,-8.784 0,-4 -0.464,-6.88 -1.392,-8.64 -0.896,-1.76 -2.272,-2.64 -4.128,-2.64 -1.856,0 -3.248,0.88 -4.176,2.64 -0.896,1.76 -1.344,4.624 -1.344,8.592 0,4.032 0.464,6.976 1.392,8.832 0.928,1.824 2.304,2.736 4.128,2.736 z m 40.456,6.048 c -2.112,0 -3.984,-0.512 -5.616,-1.536 -1.6,-1.024 -2.864,-2.48 -3.792,-4.368 -0.896,-1.888 -1.344,-4.16 -1.344,-6.816 0,-2.624 0.448,-4.88 1.344,-6.768 0.896,-1.888 2.16,-3.328 3.792,-4.32 1.632,-1.024 3.504,-1.536 5.616,-1.536 1.92,0 3.632,0.464 5.136,1.392 1.536,0.896 2.56,2.112 3.072,3.648 h -0.624 v -15.552 h 7.248 V 296 h -7.152 v -4.752 h 0.624 c -0.512,1.6 -1.536,2.88 -3.072,3.84 -1.536,0.96 -3.28,1.44 -5.232,1.44 z m 2.16,-5.472 c 1.664,0 3.008,-0.592 4.032,-1.776 1.024,-1.184 1.536,-3.008 1.536,-5.472 0,-2.464 -0.512,-4.272 -1.536,-5.424 -1.024,-1.152 -2.368,-1.728 -4.032,-1.728 -1.664,0 -3.024,0.576 -4.08,1.728 -1.024,1.152 -1.536,2.96 -1.536,5.424 0,2.464 0.512,4.288 1.536,5.472 1.056,1.184 2.416,1.776 4.08,1.776 z m 30.856,5.472 c -4.224,0 -7.52,-1.136 -9.888,-3.408 -2.368,-2.272 -3.552,-5.36 -3.552,-9.264 0,-2.528 0.496,-4.736 1.488,-6.624 1.024,-1.888 2.432,-3.36 4.224,-4.416 1.824,-1.088 3.952,-1.632 6.384,-1.632 2.4,0 4.4,0.512 6,1.536 1.632,1.024 2.848,2.464 3.648,4.32 0.832,1.824 1.248,3.952 1.248,6.384 v 1.68 h -17.04 v -3.6 h 11.76 l -0.816,0.672 c 0,-2.016 -0.416,-3.536 -1.248,-4.56 -0.8,-1.056 -1.968,-1.584 -3.504,-1.584 -1.696,0 -3.008,0.624 -3.936,1.872 -0.896,1.248 -1.344,3.04 -1.344,5.376 v 0.768 c 0,2.368 0.576,4.128 1.728,5.28 1.184,1.152 2.88,1.728 5.088,1.728 1.312,0 2.544,-0.16 3.696,-0.48 1.184,-0.352 2.304,-0.896 3.36,-1.632 l 2.016,4.8 c -1.216,0.896 -2.624,1.584 -4.224,2.064 -1.568,0.48 -3.264,0.72 -5.088,0.72 z M 899.902,296 v -33.84 h 6.576 l 11.76,26.4 h -1.536 l 11.76,-26.4 h 6.528 V 296 h -6.816 v -22.992 h 1.92 L 919.582,296 h -4.32 l -10.56,-22.992 h 2.016 V 296 Z m 51.022,0.528 c -2.112,0 -3.968,-0.512 -5.568,-1.536 -1.6,-1.024 -2.848,-2.48 -3.744,-4.368 -0.896,-1.888 -1.344,-4.16 -1.344,-6.816 0,-2.624 0.448,-4.88 1.344,-6.768 0.896,-1.888 2.144,-3.328 3.744,-4.32 1.6,-1.024 3.456,-1.536 5.568,-1.536 1.952,0 3.696,0.48 5.232,1.44 1.568,0.928 2.592,2.192 3.072,3.792 H 958.7 l 0.576,-4.752 h 6.96 c -0.096,1.056 -0.192,2.128 -0.288,3.216 -0.064,1.056 -0.096,2.096 -0.096,3.12 v 18 h -7.2 l -0.048,-4.56 h 0.576 c -0.512,1.536 -1.536,2.768 -3.072,3.696 -1.536,0.928 -3.264,1.392 -5.184,1.392 z m 2.208,-5.472 c 1.664,0 3.008,-0.592 4.032,-1.776 1.024,-1.184 1.536,-3.008 1.536,-5.472 0,-2.464 -0.512,-4.272 -1.536,-5.424 -1.024,-1.152 -2.368,-1.728 -4.032,-1.728 -1.664,0 -3.008,0.576 -4.032,1.728 -1.024,1.152 -1.536,2.96 -1.536,5.424 0,2.464 0.496,4.288 1.488,5.472 1.024,1.184 2.384,1.776 4.08,1.776 z M 971.796,296 v -24.336 h 7.248 V 296 Z m -0.288,-28.32 v -6.768 h 7.776 v 6.768 z m 24.98,28.848 c -2.592,0 -4.848,-0.512 -6.768,-1.536 -1.888,-1.056 -3.36,-2.528 -4.416,-4.416 -1.024,-1.888 -1.536,-4.144 -1.536,-6.768 0,-2.592 0.512,-4.832 1.536,-6.72 1.056,-1.888 2.528,-3.344 4.416,-4.368 1.92,-1.024 4.176,-1.536 6.768,-1.536 2.592,0 4.852,0.512 6.772,1.536 1.92,1.024 3.39,2.48 4.41,4.368 1.06,1.888 1.59,4.128 1.59,6.72 0,2.624 -0.53,4.88 -1.59,6.768 -1.02,1.888 -2.49,3.36 -4.41,4.416 -1.92,1.024 -4.18,1.536 -6.772,1.536 z m 0,-5.472 c 1.664,0 2.976,-0.592 3.932,-1.776 1,-1.184 1.49,-3.008 1.49,-5.472 0,-2.464 -0.49,-4.272 -1.49,-5.424 -0.956,-1.152 -2.268,-1.728 -3.932,-1.728 -1.664,0 -2.992,0.576 -3.984,1.728 -0.96,1.152 -1.44,2.96 -1.44,5.424 0,2.464 0.48,4.288 1.44,5.472 0.992,1.184 2.32,1.776 3.984,1.776 z m 40.452,5.472 c -2.11,0 -3.97,-0.512 -5.57,-1.536 -1.6,-1.024 -2.85,-2.48 -3.74,-4.368 -0.9,-1.888 -1.35,-4.16 -1.35,-6.816 0,-2.624 0.45,-4.88 1.35,-6.768 0.89,-1.888 2.14,-3.328 3.74,-4.32 1.6,-1.024 3.46,-1.536 5.57,-1.536 1.95,0 3.7,0.48 5.23,1.44 1.57,0.928 2.59,2.192 3.07,3.792 h -0.52 l 0.57,-4.752 h 6.96 c -0.09,1.056 -0.19,2.128 -0.29,3.216 -0.06,1.056 -0.09,2.096 -0.09,3.12 v 18 h -7.2 l -0.05,-4.56 h 0.58 c -0.52,1.536 -1.54,2.768 -3.08,3.696 -1.53,0.928 -3.26,1.392 -5.18,1.392 z m 2.21,-5.472 c 1.66,0 3.01,-0.592 4.03,-1.776 1.02,-1.184 1.54,-3.008 1.54,-5.472 0,-2.464 -0.52,-4.272 -1.54,-5.424 -1.02,-1.152 -2.37,-1.728 -4.03,-1.728 -1.67,0 -3.01,0.576 -4.03,1.728 -1.03,1.152 -1.54,2.96 -1.54,5.424 0,2.464 0.5,4.288 1.49,5.472 1.02,1.184 2.38,1.776 4.08,1.776 z m 43.63,5.472 c -4.06,0 -7.2,-1.52 -9.41,-4.56 -2.17,-3.072 -3.26,-7.392 -3.26,-12.96 0,-5.664 1.09,-9.968 3.26,-12.912 2.21,-2.976 5.35,-4.464 9.41,-4.464 4.1,0 7.23,1.488 9.41,4.464 2.18,2.944 3.26,7.232 3.26,12.864 0,5.6 -1.08,9.936 -3.26,13.008 -2.18,3.04 -5.31,4.56 -9.41,4.56 z m 0,-6.048 c 1.86,0 3.23,-0.912 4.13,-2.736 0.93,-1.856 1.39,-4.784 1.39,-8.784 0,-4 -0.46,-6.88 -1.39,-8.64 -0.9,-1.76 -2.27,-2.64 -4.13,-2.64 -1.85,0 -3.25,0.88 -4.17,2.64 -0.9,1.76 -1.35,4.624 -1.35,8.592 0,4.032 0.47,6.976 1.39,8.832 0.93,1.824 2.31,2.736 4.13,2.736 z m 17.89,5.52 v -5.52 l 10.75,-11.184 c 1.34,-1.408 2.32,-2.656 2.93,-3.744 0.61,-1.088 0.91,-2.208 0.91,-3.36 0,-1.44 -0.46,-2.528 -1.39,-3.264 -0.93,-0.736 -2.26,-1.104 -3.99,-1.104 -1.44,0 -2.86,0.272 -4.27,0.816 -1.37,0.512 -2.73,1.312 -4.08,2.4 l -2.35,-5.472 c 1.41,-1.216 3.15,-2.176 5.23,-2.88 2.08,-0.704 4.24,-1.056 6.48,-1.056 3.78,0 6.67,0.848 8.69,2.544 2.02,1.664 3.02,4.048 3.02,7.152 0,2.08 -0.48,4.064 -1.44,5.952 -0.96,1.888 -2.51,3.888 -4.65,6 l -8.64,8.496 v -1.92 h 16.03 V 296 Z m 51.35,0.528 c -2.11,0 -3.98,-0.512 -5.62,-1.536 -1.6,-1.024 -2.86,-2.48 -3.79,-4.368 -0.89,-1.888 -1.34,-4.16 -1.34,-6.816 0,-2.624 0.45,-4.88 1.34,-6.768 0.9,-1.888 2.16,-3.328 3.79,-4.32 1.64,-1.024 3.51,-1.536 5.62,-1.536 1.92,0 3.63,0.464 5.14,1.392 1.53,0.896 2.56,2.112 3.07,3.648 h -0.63 v -15.552 h 7.25 V 296 h -7.15 v -4.752 h 0.62 c -0.51,1.6 -1.53,2.88 -3.07,3.84 -1.53,0.96 -3.28,1.44 -5.23,1.44 z m 2.16,-5.472 c 1.66,0 3.01,-0.592 4.03,-1.776 1.03,-1.184 1.54,-3.008 1.54,-5.472 0,-2.464 -0.51,-4.272 -1.54,-5.424 -1.02,-1.152 -2.37,-1.728 -4.03,-1.728 -1.66,0 -3.02,0.576 -4.08,1.728 -1.02,1.152 -1.54,2.96 -1.54,5.424 0,2.464 0.52,4.288 1.54,5.472 1.06,1.184 2.42,1.776 4.08,1.776 z m 30.86,5.472 c -4.23,0 -7.52,-1.136 -9.89,-3.408 -2.37,-2.272 -3.55,-5.36 -3.55,-9.264 0,-2.528 0.49,-4.736 1.48,-6.624 1.03,-1.888 2.44,-3.36 4.23,-4.416 1.82,-1.088 3.95,-1.632 6.38,-1.632 2.4,0 4.4,0.512 6,1.536 1.63,1.024 2.85,2.464 3.65,4.32 0.83,1.824 1.25,3.952 1.25,6.384 v 1.68 h -17.04 v -3.6 h 11.76 l -0.82,0.672 c 0,-2.016 -0.41,-3.536 -1.25,-4.56 -0.8,-1.056 -1.96,-1.584 -3.5,-1.584 -1.7,0 -3.01,0.624 -3.94,1.872 -0.89,1.248 -1.34,3.04 -1.34,5.376 v 0.768 c 0,2.368 0.58,4.128 1.73,5.28 1.18,1.152 2.88,1.728 5.09,1.728 1.31,0 2.54,-0.16 3.69,-0.48 1.19,-0.352 2.31,-0.896 3.36,-1.632 l 2.02,4.8 c -1.22,0.896 -2.63,1.584 -4.23,2.064 -1.56,0.48 -3.26,0.72 -5.08,0.72 z m 29.33,8.448 c -0.58,0 -1.27,-0.032 -2.07,-0.096 -0.8,-0.064 -1.61,-0.176 -2.45,-0.336 v -5.856 c 0.64,0.128 1.25,0.224 1.83,0.288 0.57,0.064 1.04,0.096 1.39,0.096 1.47,0 2.51,-0.416 3.12,-1.248 0.61,-0.832 0.91,-2.176 0.91,-4.032 V 262.16 h 7.49 v 31.632 c 0,2.496 -0.35,4.576 -1.06,6.24 -0.67,1.664 -1.76,2.896 -3.26,3.696 -1.47,0.832 -3.44,1.248 -5.9,1.248 z m 25.48,-8.448 c -3.04,0 -5.3,-0.832 -6.77,-2.496 -1.47,-1.696 -2.21,-4.256 -2.21,-7.68 v -14.688 h 7.25 v 14.688 c 0,1.536 0.3,2.672 0.91,3.408 0.64,0.736 1.62,1.104 2.93,1.104 1.44,0 2.62,-0.496 3.55,-1.488 0.96,-1.024 1.44,-2.384 1.44,-4.08 v -13.632 h 7.25 V 296 h -7.06 v -4.656 h 0.68 c -0.74,1.632 -1.8,2.912 -3.17,3.84 -1.35,0.896 -2.95,1.344 -4.8,1.344 z M 1260.17,296 v -18 c 0,-1.024 -0.03,-2.064 -0.09,-3.12 -0.07,-1.088 -0.16,-2.16 -0.29,-3.216 h 6.96 l 0.53,4.512 h -0.58 c 0.8,-1.6 1.94,-2.832 3.41,-3.696 1.47,-0.864 3.18,-1.296 5.13,-1.296 2.85,0 4.98,0.832 6.39,2.496 1.44,1.632 2.16,4.176 2.16,7.632 V 296 h -7.25 v -14.352 c 0,-1.76 -0.32,-3.008 -0.96,-3.744 -0.64,-0.736 -1.6,-1.104 -2.88,-1.104 -1.6,0 -2.88,0.512 -3.84,1.536 -0.96,0.992 -1.44,2.336 -1.44,4.032 V 296 Z m 29.44,0 v -35.328 h 7.25 v 15.552 h -0.72 c 0.76,-1.632 1.9,-2.88 3.4,-3.744 1.51,-0.864 3.24,-1.296 5.19,-1.296 2.85,0 4.97,0.832 6.38,2.496 1.41,1.632 2.11,4.144 2.11,7.536 V 296 h -7.24 v -14.448 c 0,-1.696 -0.32,-2.912 -0.96,-3.648 -0.61,-0.736 -1.57,-1.104 -2.88,-1.104 -1.6,0 -2.88,0.496 -3.84,1.488 -0.96,0.992 -1.44,2.32 -1.44,3.984 V 296 Z m 40.96,0.528 c -2.6,0 -4.85,-0.512 -6.77,-1.536 -1.89,-1.056 -3.36,-2.528 -4.42,-4.416 -1.02,-1.888 -1.53,-4.144 -1.53,-6.768 0,-2.592 0.51,-4.832 1.53,-6.72 1.06,-1.888 2.53,-3.344 4.42,-4.368 1.92,-1.024 4.17,-1.536 6.77,-1.536 2.59,0 4.84,0.512 6.76,1.536 1.92,1.024 3.4,2.48 4.42,4.368 1.06,1.888 1.58,4.128 1.58,6.72 0,2.624 -0.52,4.88 -1.58,6.768 -1.02,1.888 -2.5,3.36 -4.42,4.416 -1.92,1.024 -4.17,1.536 -6.76,1.536 z m 0,-5.472 c 1.66,0 2.97,-0.592 3.93,-1.776 0.99,-1.184 1.49,-3.008 1.49,-5.472 0,-2.464 -0.5,-4.272 -1.49,-5.424 -0.96,-1.152 -2.27,-1.728 -3.93,-1.728 -1.67,0 -3,0.576 -3.99,1.728 -0.96,1.152 -1.44,2.96 -1.44,5.424 0,2.464 0.48,4.288 1.44,5.472 0.99,1.184 2.32,1.776 3.99,1.776 z m 40.54,5.472 c -2.11,0 -3.98,-0.512 -5.61,-1.536 -1.6,-1.024 -2.87,-2.48 -3.79,-4.368 -0.9,-1.888 -1.35,-4.16 -1.35,-6.816 0,-2.624 0.45,-4.88 1.35,-6.768 0.89,-1.888 2.16,-3.328 3.79,-4.32 1.63,-1.024 3.5,-1.536 5.61,-1.536 1.92,0 3.64,0.464 5.14,1.392 1.54,0.896 2.56,2.112 3.07,3.648 h -0.62 v -15.552 h 7.25 V 296 h -7.16 v -4.752 h 0.63 c -0.51,1.6 -1.54,2.88 -3.07,3.84 -1.54,0.96 -3.28,1.44 -5.24,1.44 z m 2.16,-5.472 c 1.67,0 3.01,-0.592 4.04,-1.776 1.02,-1.184 1.53,-3.008 1.53,-5.472 0,-2.464 -0.51,-4.272 -1.53,-5.424 -1.03,-1.152 -2.37,-1.728 -4.04,-1.728 -1.66,0 -3.02,0.576 -4.08,1.728 -1.02,1.152 -1.53,2.96 -1.53,5.424 0,2.464 0.51,4.288 1.53,5.472 1.06,1.184 2.42,1.776 4.08,1.776 z m 30.86,5.472 c -4.22,0 -7.52,-1.136 -9.89,-3.408 -2.37,-2.272 -3.55,-5.36 -3.55,-9.264 0,-2.528 0.5,-4.736 1.49,-6.624 1.02,-1.888 2.43,-3.36 4.22,-4.416 1.83,-1.088 3.95,-1.632 6.39,-1.632 2.4,0 4.4,0.512 6,1.536 1.63,1.024 2.84,2.464 3.64,4.32 0.84,1.824 1.25,3.952 1.25,6.384 v 1.68 h -17.04 v -3.6 h 11.76 l -0.81,0.672 c 0,-2.016 -0.42,-3.536 -1.25,-4.56 -0.8,-1.056 -1.97,-1.584 -3.51,-1.584 -1.69,0 -3,0.624 -3.93,1.872 -0.9,1.248 -1.35,3.04 -1.35,5.376 v 0.768 c 0,2.368 0.58,4.128 1.73,5.28 1.19,1.152 2.88,1.728 5.09,1.728 1.31,0 2.54,-0.16 3.7,-0.48 1.18,-0.352 2.3,-0.896 3.36,-1.632 l 2.01,4.8 c -1.21,0.896 -2.62,1.584 -4.22,2.064 -1.57,0.48 -3.27,0.72 -5.09,0.72 z M 1432.36,296 v -5.52 l 10.75,-11.184 c 1.34,-1.408 2.32,-2.656 2.93,-3.744 0.6,-1.088 0.91,-2.208 0.91,-3.36 0,-1.44 -0.47,-2.528 -1.39,-3.264 -0.93,-0.736 -2.26,-1.104 -3.99,-1.104 -1.44,0 -2.86,0.272 -4.27,0.816 -1.38,0.512 -2.74,1.312 -4.08,2.4 l -2.35,-5.472 c 1.41,-1.216 3.15,-2.176 5.23,-2.88 2.08,-0.704 4.24,-1.056 6.48,-1.056 3.78,0 6.67,0.848 8.69,2.544 2.01,1.664 3.02,4.048 3.02,7.152 0,2.08 -0.48,4.064 -1.44,5.952 -0.96,1.888 -2.51,3.888 -4.65,6 l -8.64,8.496 v -1.92 h 16.03 V 296 Z m 39.67,0.528 c -4.06,0 -7.2,-1.52 -9.41,-4.56 -2.17,-3.072 -3.26,-7.392 -3.26,-12.96 0,-5.664 1.09,-9.968 3.26,-12.912 2.21,-2.976 5.35,-4.464 9.41,-4.464 4.1,0 7.23,1.488 9.41,4.464 2.18,2.944 3.26,7.232 3.26,12.864 0,5.6 -1.08,9.936 -3.26,13.008 -2.18,3.04 -5.31,4.56 -9.41,4.56 z m 0,-6.048 c 1.86,0 3.23,-0.912 4.13,-2.736 0.93,-1.856 1.39,-4.784 1.39,-8.784 0,-4 -0.46,-6.88 -1.39,-8.64 -0.9,-1.76 -2.27,-2.64 -4.13,-2.64 -1.85,0 -3.25,0.88 -4.17,2.64 -0.9,1.76 -1.35,4.624 -1.35,8.592 0,4.032 0.47,6.976 1.39,8.832 0.93,1.824 2.31,2.736 4.13,2.736 z m 17.89,5.52 v -5.52 l 10.75,-11.184 c 1.34,-1.408 2.32,-2.656 2.93,-3.744 0.61,-1.088 0.91,-2.208 0.91,-3.36 0,-1.44 -0.46,-2.528 -1.39,-3.264 -0.93,-0.736 -2.26,-1.104 -3.99,-1.104 -1.44,0 -2.86,0.272 -4.27,0.816 -1.37,0.512 -2.73,1.312 -4.08,2.4 l -2.35,-5.472 c 1.41,-1.216 3.15,-2.176 5.23,-2.88 2.08,-0.704 4.24,-1.056 6.48,-1.056 3.78,0 6.67,0.848 8.69,2.544 2.02,1.664 3.02,4.048 3.02,7.152 0,2.08 -0.48,4.064 -1.44,5.952 -0.96,1.888 -2.51,3.888 -4.65,6 l -8.64,8.496 v -1.92 h 16.03 V 296 Z m 41.5,0 v -6.192 h -14.5 v -5.184 l 15.65,-22.464 h 6.05 v 22.032 h 4.61 v 5.616 h -4.61 V 296 Z m 0,-11.808 v -13.2 h 1.2 l -10.32,14.928 v -1.728 z"
         fill="#f4f6ed"
         id="path4" />
    </g>
    <rect
       y="441"
       width="670"
       height="147"
       rx="40"
       fill="#565ff2"
       id="rect5"
       x="0" />
    <rect
       x="531"
       y="441"
       width="670"
       height="147"
       rx="40"
       fill="#0f0f0f"
       id="rect6" />
    <rect
       x="1062"
       y="588"
       width="133"
       height="596"
       rx="40"
       transform="rotate(-90,1062,588)"
       fill="#caff54"
       id="rect7" />
    <rect
       x="1519"
       y="588"
       width="225"
       height="217"
       rx="40"
       transform="rotate(-90,1519,588)"
       fill="#caff54"
       id="rect8" />
  </g>
  <defs
     id="defs11">
    <filter
       id="filter0_di_135_2"
       x="423"
       y="-83"
       width="1453"
       height="454"
       filterUnits="userSpaceOnUse"
       color-interpolation-filters="sRGB">
      <feFlood
         flood-opacity="0"
         result="BackgroundImageFix"
         id="feFlood8" />
      <feColorMatrix
         in="SourceAlpha"
         type="matrix"
         values="0 0 0 0 0 0 0 0 0 0 0 0 0 0 0 0 0 0 127 0"
         result="hardAlpha"
         id="feColorMatrix8" />
      <feOffset
         dy="4"
         id="feOffset8" />
      <feGaussianBlur
         stdDeviation="2"
         id="feGaussianBlur8" />
      <feComposite
         in2="hardAlpha"
         operator="out"
         id="feComposite8" />
      <feColorMatrix
         type="matrix"
         values="0 0 0 0 0 0 0 0 0 0 0 0 0 0 0 0 0 0 0.25 0"
         id="feColorMatrix9" />
      <feBlend
         mode="normal"
         in2="BackgroundImageFix"
         result="effect1_dropShadow_135_2"
         id="feBlend9" />
      <feBlend
         mode="normal"
         in="SourceGraphic"
         in2="effect1_dropShadow_135_2"
         result="shape"
         id="feBlend10" />
      <feColorMatrix
         in="SourceAlpha"
         type="matrix"
         values="0 0 0 0 0 0 0 0 0 0 0 0 0 0 0 0 0 0 127 0"
         result="hardAlpha"
         id="feColorMatrix10" />
      <feOffset
         dy="4"
         id="feOffset10" />
      <feGaussianBlur
         stdDeviation="2"
         id="feGaussianBlur10" />
      <feComposite
         in2="hardAlpha"
         operator="arithmetic"
         k2="-1"
         k3="1"
         id="feComposite10"
         k1="0"
         k4="0" />
      <feColorMatrix
         type="matrix"
         values="0 0 0 0 0 0 0 0 0 0 0 0 0 0 0 0 0 0 0.25 0"
         id="feColorMatrix11" />
      <feBlend
         mode="normal"
         in2="shape"
         result="effect2_innerShadow_135_2"
         id="feBlend11" />
    </filter>
    <clipPath
       id="clip0_135_2">
      <rect
         width="1872"
         height="588"
         fill="#ffffff"
         id="rect11"
         x="0"
         y="0" />
    </clipPath>
  </defs>
</svg>
