<svg width="1875" height="588" viewBox="0 0 1875 588" fill="none" xmlns="http://www.w3.org/2000/svg">
<g clip-path="url(#clip0_211_2)">
<rect width="1875" height="588" fill="#F4F6ED"/>
<rect y="-233" width="280" height="596" rx="40" fill="#CAFF54"/>
<rect x="141" y="-172" width="425" height="535" rx="40" fill="#0F0F0F"/>
<g filter="url(#filter0_di_211_2)">
<rect x="427" y="-83" width="1445" height="446" rx="40" fill="#565FF2" shape-rendering="crispEdges"/>
<path d="M1087.64 56V22.16H1098.01V47.456H1111.74V56H1087.64ZM1128.01 56.576C1125.2 56.576 1122.75 56.064 1120.67 55.04C1118.59 53.984 1116.97 52.496 1115.82 50.576C1114.7 48.656 1114.14 46.384 1114.14 43.76C1114.14 41.104 1114.7 38.832 1115.82 36.944C1116.97 35.024 1118.59 33.552 1120.67 32.528C1122.75 31.472 1125.2 30.944 1128.01 30.944C1130.83 30.944 1133.26 31.472 1135.31 32.528C1137.39 33.552 1138.99 35.024 1140.11 36.944C1141.26 38.832 1141.84 41.104 1141.84 43.76C1141.84 46.384 1141.26 48.656 1140.11 50.576C1138.99 52.496 1137.39 53.984 1135.31 55.04C1133.26 56.064 1130.83 56.576 1128.01 56.576ZM1128.01 49.232C1129.16 49.232 1130.08 48.816 1130.75 47.984C1131.42 47.152 1131.76 45.744 1131.76 43.76C1131.76 41.776 1131.42 40.368 1130.75 39.536C1130.08 38.704 1129.16 38.288 1128.01 38.288C1126.83 38.288 1125.9 38.704 1125.23 39.536C1124.56 40.368 1124.22 41.776 1124.22 43.76C1124.22 45.744 1124.56 47.152 1125.23 47.984C1125.9 48.816 1126.83 49.232 1128.01 49.232ZM1158.44 56.576C1155.65 56.576 1153.21 56.064 1151.09 55.04C1148.98 54.016 1147.33 52.544 1146.15 50.624C1145 48.704 1144.42 46.416 1144.42 43.76C1144.42 41.072 1145 38.784 1146.15 36.896C1147.33 34.976 1148.98 33.504 1151.09 32.48C1153.21 31.456 1155.65 30.944 1158.44 30.944C1160.13 30.944 1161.8 31.168 1163.43 31.616C1165.09 32.032 1166.42 32.624 1167.41 33.392L1164.73 40.16C1164.02 39.616 1163.19 39.2 1162.23 38.912C1161.3 38.592 1160.41 38.432 1159.54 38.432C1158.01 38.432 1156.81 38.88 1155.94 39.776C1155.11 40.672 1154.69 42 1154.69 43.76C1154.69 45.52 1155.11 46.848 1155.94 47.744C1156.81 48.64 1158.01 49.088 1159.54 49.088C1160.37 49.088 1161.27 48.928 1162.23 48.608C1163.19 48.288 1164.02 47.872 1164.73 47.36L1167.41 54.128C1166.39 54.896 1165.06 55.504 1163.43 55.952C1161.8 56.368 1160.13 56.576 1158.44 56.576ZM1180.06 56.576C1177.98 56.576 1176.13 56.064 1174.49 55.04C1172.89 54.016 1171.63 52.544 1170.7 50.624C1169.81 48.704 1169.36 46.416 1169.36 43.76C1169.36 41.104 1169.81 38.816 1170.7 36.896C1171.63 34.976 1172.89 33.504 1174.49 32.48C1176.13 31.456 1177.98 30.944 1180.06 30.944C1181.85 30.944 1183.5 31.36 1185.01 32.192C1186.54 33.024 1187.53 34.112 1187.98 35.456H1187.5L1188.08 31.52H1197.68C1197.55 32.672 1197.45 33.84 1197.39 35.024C1197.33 36.176 1197.29 37.328 1197.29 38.48V56H1187.41L1187.31 52.352H1187.89C1187.41 53.6 1186.41 54.624 1184.91 55.424C1183.44 56.192 1181.82 56.576 1180.06 56.576ZM1183.42 49.232C1184.61 49.232 1185.57 48.816 1186.3 47.984C1187.07 47.152 1187.45 45.744 1187.45 43.76C1187.45 41.776 1187.07 40.368 1186.3 39.536C1185.57 38.704 1184.61 38.288 1183.42 38.288C1182.24 38.288 1181.26 38.704 1180.49 39.536C1179.76 40.368 1179.39 41.776 1179.39 43.76C1179.39 45.744 1179.76 47.152 1180.49 47.984C1181.23 48.816 1182.21 49.232 1183.42 49.232ZM1201.91 56V20.672H1211.9V56H1201.91ZM1002.07 116.48C999.348 116.48 996.836 116.144 994.532 115.472C992.26 114.768 990.308 113.808 988.676 112.592L990.596 107.744C991.684 108.512 992.82 109.168 994.004 109.712C995.188 110.224 996.452 110.624 997.796 110.912C999.14 111.168 1000.56 111.296 1002.07 111.296C1004.6 111.296 1006.42 110.88 1007.54 110.048C1008.66 109.216 1009.22 108.128 1009.22 106.784C1009.22 105.6 1008.84 104.704 1008.07 104.096C1007.3 103.456 1005.92 102.928 1003.94 102.512L998.516 101.408C995.412 100.768 993.092 99.696 991.556 98.192C990.02 96.688 989.252 94.672 989.252 92.144C989.252 90.032 989.812 88.192 990.932 86.624C992.052 85.056 993.62 83.84 995.636 82.976C997.652 82.112 1000 81.68 1002.69 81.68C1005.09 81.68 1007.32 82.032 1009.36 82.736C1011.41 83.408 1013.12 84.384 1014.5 85.664L1012.58 90.272C1011.2 89.12 1009.7 88.272 1008.07 87.728C1006.44 87.152 1004.61 86.864 1002.6 86.864C1000.32 86.864 998.548 87.312 997.268 88.208C996.02 89.072 995.396 90.272 995.396 91.808C995.396 92.992 995.78 93.936 996.548 94.64C997.348 95.344 998.692 95.888 1000.58 96.272L1005.96 97.328C1009.16 97.968 1011.52 99.024 1013.06 100.496C1014.6 101.936 1015.36 103.888 1015.36 106.352C1015.36 108.368 1014.82 110.144 1013.73 111.68C1012.64 113.184 1011.11 114.368 1009.12 115.232C1007.14 116.064 1004.79 116.48 1002.07 116.48ZM1030.08 116.48C1027.97 116.48 1026.11 115.984 1024.51 114.992C1022.91 113.968 1021.66 112.512 1020.77 110.624C1019.87 108.736 1019.42 106.48 1019.42 103.856C1019.42 101.232 1019.87 98.992 1020.77 97.136C1021.66 95.248 1022.91 93.808 1024.51 92.816C1026.11 91.792 1027.97 91.28 1030.08 91.28C1032.13 91.28 1033.92 91.792 1035.45 92.816C1037.02 93.808 1038.06 95.152 1038.57 96.848H1038.05L1038.57 91.76H1044.33C1044.24 92.752 1044.14 93.76 1044.05 94.784C1043.98 95.808 1043.95 96.816 1043.95 97.808V116H1038L1037.95 111.008H1038.53C1038.01 112.672 1036.97 114 1035.41 114.992C1033.84 115.984 1032.06 116.48 1030.08 116.48ZM1031.76 111.872C1033.65 111.872 1035.17 111.216 1036.32 109.904C1037.47 108.56 1038.05 106.544 1038.05 103.856C1038.05 101.168 1037.47 99.168 1036.32 97.856C1035.17 96.544 1033.65 95.888 1031.76 95.888C1029.87 95.888 1028.35 96.544 1027.2 97.856C1026.05 99.168 1025.47 101.168 1025.47 103.856C1025.47 106.544 1026.03 108.56 1027.15 109.904C1028.3 111.216 1029.84 111.872 1031.76 111.872ZM1025.76 87.968L1022.78 87.776C1022.94 85.504 1023.55 83.76 1024.61 82.544C1025.66 81.296 1026.97 80.672 1028.54 80.672C1029.25 80.672 1029.9 80.816 1030.51 81.104C1031.12 81.392 1031.81 81.824 1032.57 82.4C1033.25 82.912 1033.79 83.28 1034.21 83.504C1034.65 83.728 1035.09 83.84 1035.5 83.84C1037.1 83.84 1038.08 82.72 1038.43 80.48L1041.41 80.672C1041.28 82.944 1040.69 84.704 1039.63 85.952C1038.57 87.168 1037.26 87.776 1035.69 87.776C1034.99 87.776 1034.32 87.632 1033.68 87.344C1033.07 87.056 1032.37 86.608 1031.57 86C1030.96 85.488 1030.43 85.136 1029.98 84.944C1029.57 84.72 1029.13 84.608 1028.69 84.608C1027.82 84.608 1027.15 84.912 1026.67 85.52C1026.22 86.096 1025.92 86.912 1025.76 87.968ZM1061.43 116.48C1058.93 116.48 1056.77 115.968 1054.95 114.944C1053.12 113.92 1051.7 112.464 1050.67 110.576C1049.68 108.688 1049.19 106.448 1049.19 103.856C1049.19 101.264 1049.68 99.04 1050.67 97.184C1051.7 95.296 1053.12 93.84 1054.95 92.816C1056.77 91.792 1058.93 91.28 1061.43 91.28C1063.92 91.28 1066.08 91.792 1067.91 92.816C1069.76 93.84 1071.19 95.296 1072.18 97.184C1073.2 99.04 1073.71 101.264 1073.71 103.856C1073.71 106.448 1073.2 108.688 1072.18 110.576C1071.19 112.464 1069.76 113.92 1067.91 114.944C1066.08 115.968 1063.92 116.48 1061.43 116.48ZM1061.43 111.872C1063.31 111.872 1064.82 111.216 1065.94 109.904C1067.06 108.56 1067.62 106.544 1067.62 103.856C1067.62 101.168 1067.06 99.168 1065.94 97.856C1064.82 96.544 1063.31 95.888 1061.43 95.888C1059.54 95.888 1058.03 96.544 1056.91 97.856C1055.79 99.168 1055.23 101.168 1055.23 103.856C1055.23 106.544 1055.79 108.56 1056.91 109.904C1058.03 111.216 1059.54 111.872 1061.43 111.872ZM1108.28 116.48C1104.76 116.48 1101.74 115.776 1099.21 114.368C1096.72 112.928 1094.8 110.912 1093.45 108.32C1092.11 105.696 1091.44 102.608 1091.44 99.056C1091.44 95.504 1092.11 92.432 1093.45 89.84C1094.8 87.248 1096.72 85.248 1099.21 83.84C1101.74 82.4 1104.76 81.68 1108.28 81.68C1110.65 81.68 1112.78 82.016 1114.67 82.688C1116.59 83.36 1118.24 84.352 1119.61 85.664L1117.6 90.56C1116.09 89.344 1114.64 88.48 1113.23 87.968C1111.85 87.424 1110.27 87.152 1108.48 87.152C1105.05 87.152 1102.43 88.192 1100.6 90.272C1098.81 92.32 1097.92 95.248 1097.92 99.056C1097.92 102.864 1098.81 105.808 1100.6 107.888C1102.43 109.968 1105.05 111.008 1108.48 111.008C1110.27 111.008 1111.85 110.752 1113.23 110.24C1114.64 109.696 1116.09 108.8 1117.6 107.552L1119.61 112.448C1118.24 113.728 1116.59 114.72 1114.67 115.424C1112.78 116.128 1110.65 116.48 1108.28 116.48ZM1133.44 116.48C1131.32 116.48 1129.47 115.984 1127.87 114.992C1126.27 113.968 1125.02 112.512 1124.12 110.624C1123.23 108.736 1122.78 106.48 1122.78 103.856C1122.78 101.232 1123.23 98.992 1124.12 97.136C1125.02 95.248 1126.27 93.808 1127.87 92.816C1129.47 91.792 1131.32 91.28 1133.44 91.28C1135.48 91.28 1137.28 91.792 1138.81 92.816C1140.38 93.808 1141.42 95.152 1141.93 96.848H1141.4L1141.93 91.76H1147.69C1147.6 92.752 1147.5 93.76 1147.4 94.784C1147.34 95.808 1147.31 96.816 1147.31 97.808V116H1141.36L1141.31 111.008H1141.88C1141.37 112.672 1140.33 114 1138.76 114.992C1137.2 115.984 1135.42 116.48 1133.44 116.48ZM1135.12 111.872C1137 111.872 1138.52 111.216 1139.68 109.904C1140.83 108.56 1141.4 106.544 1141.4 103.856C1141.4 101.168 1140.83 99.168 1139.68 97.856C1138.52 96.544 1137 95.888 1135.12 95.888C1133.23 95.888 1131.71 96.544 1130.56 97.856C1129.4 99.168 1128.83 101.168 1128.83 103.856C1128.83 106.544 1129.39 108.56 1130.51 109.904C1131.66 111.216 1133.2 111.872 1135.12 111.872ZM1153.79 116V97.952C1153.79 96.928 1153.76 95.888 1153.7 94.832C1153.67 93.776 1153.59 92.752 1153.46 91.76H1159.27L1159.94 98.384H1158.98C1159.3 96.784 1159.83 95.456 1160.56 94.4C1161.33 93.344 1162.26 92.56 1163.35 92.048C1164.43 91.536 1165.62 91.28 1166.9 91.28C1167.47 91.28 1167.94 91.312 1168.29 91.376C1168.64 91.408 1168.99 91.488 1169.35 91.616L1169.3 96.896C1168.69 96.64 1168.16 96.48 1167.71 96.416C1167.3 96.352 1166.77 96.32 1166.13 96.32C1164.75 96.32 1163.59 96.608 1162.63 97.184C1161.7 97.76 1160.99 98.56 1160.51 99.584C1160.07 100.608 1159.84 101.776 1159.84 103.088V116H1153.79ZM1172.69 116V80.672H1178.69V116H1172.69ZM1196.15 116.48C1193.65 116.48 1191.49 115.968 1189.67 114.944C1187.84 113.92 1186.42 112.464 1185.39 110.576C1184.4 108.688 1183.91 106.448 1183.91 103.856C1183.91 101.264 1184.4 99.04 1185.39 97.184C1186.42 95.296 1187.84 93.84 1189.67 92.816C1191.49 91.792 1193.65 91.28 1196.15 91.28C1198.64 91.28 1200.8 91.792 1202.63 92.816C1204.48 93.84 1205.91 95.296 1206.9 97.184C1207.92 99.04 1208.43 101.264 1208.43 103.856C1208.43 106.448 1207.92 108.688 1206.9 110.576C1205.91 112.464 1204.48 113.92 1202.63 114.944C1200.8 115.968 1198.64 116.48 1196.15 116.48ZM1196.15 111.872C1198.03 111.872 1199.54 111.216 1200.66 109.904C1201.78 108.56 1202.34 106.544 1202.34 103.856C1202.34 101.168 1201.78 99.168 1200.66 97.856C1199.54 96.544 1198.03 95.888 1196.15 95.888C1194.26 95.888 1192.75 96.544 1191.63 97.856C1190.51 99.168 1189.95 101.168 1189.95 103.856C1189.95 106.544 1190.51 108.56 1191.63 109.904C1192.75 111.216 1194.26 111.872 1196.15 111.872ZM1222.25 116.48C1220.17 116.48 1218.25 116.24 1216.49 115.76C1214.76 115.248 1213.3 114.544 1212.12 113.648L1213.8 109.616C1215.02 110.448 1216.36 111.088 1217.83 111.536C1219.3 111.984 1220.79 112.208 1222.3 112.208C1223.9 112.208 1225.08 111.936 1225.85 111.392C1226.65 110.848 1227.05 110.112 1227.05 109.184C1227.05 108.448 1226.79 107.872 1226.28 107.456C1225.8 107.008 1225.02 106.672 1223.93 106.448L1219.13 105.536C1217.08 105.088 1215.51 104.32 1214.42 103.232C1213.37 102.144 1212.84 100.72 1212.84 98.96C1212.84 97.456 1213.24 96.128 1214.04 94.976C1214.87 93.824 1216.04 92.928 1217.54 92.288C1219.08 91.616 1220.87 91.28 1222.92 91.28C1224.71 91.28 1226.39 91.52 1227.96 92C1229.56 92.48 1230.9 93.2 1231.99 94.16L1230.26 98.048C1229.27 97.248 1228.14 96.624 1226.86 96.176C1225.58 95.728 1224.33 95.504 1223.11 95.504C1221.45 95.504 1220.23 95.808 1219.46 96.416C1218.7 96.992 1218.31 97.744 1218.31 98.672C1218.31 99.376 1218.54 99.968 1218.98 100.448C1219.46 100.896 1220.2 101.232 1221.19 101.456L1225.99 102.368C1228.14 102.784 1229.75 103.52 1230.84 104.576C1231.96 105.6 1232.52 107.008 1232.52 108.8C1232.52 110.4 1232.09 111.776 1231.22 112.928C1230.36 114.08 1229.16 114.96 1227.62 115.568C1226.09 116.176 1224.3 116.48 1222.25 116.48ZM1238.13 118.832H1233.19L1245.81 79.904H1250.76L1238.13 118.832ZM1265.13 116.48C1262.41 116.48 1259.9 116.144 1257.59 115.472C1255.32 114.768 1253.37 113.808 1251.74 112.592L1253.66 107.744C1254.75 108.512 1255.88 109.168 1257.07 109.712C1258.25 110.224 1259.51 110.624 1260.86 110.912C1262.2 111.168 1263.63 111.296 1265.13 111.296C1267.66 111.296 1269.48 110.88 1270.6 110.048C1271.72 109.216 1272.28 108.128 1272.28 106.784C1272.28 105.6 1271.9 104.704 1271.13 104.096C1270.36 103.456 1268.99 102.928 1267 102.512L1261.58 101.408C1258.47 100.768 1256.15 99.696 1254.62 98.192C1253.08 96.688 1252.31 94.672 1252.31 92.144C1252.31 90.032 1252.87 88.192 1253.99 86.624C1255.11 85.056 1256.68 83.84 1258.7 82.976C1260.71 82.112 1263.07 81.68 1265.75 81.68C1268.15 81.68 1270.38 82.032 1272.43 82.736C1274.47 83.408 1276.19 84.384 1277.56 85.664L1275.64 90.272C1274.27 89.12 1272.76 88.272 1271.13 87.728C1269.5 87.152 1267.67 86.864 1265.66 86.864C1263.39 86.864 1261.61 87.312 1260.33 88.208C1259.08 89.072 1258.46 90.272 1258.46 91.808C1258.46 92.992 1258.84 93.936 1259.61 94.64C1260.41 95.344 1261.75 95.888 1263.64 96.272L1269.02 97.328C1272.22 97.968 1274.59 99.024 1276.12 100.496C1277.66 101.936 1278.43 103.888 1278.43 106.352C1278.43 108.368 1277.88 110.144 1276.79 111.68C1275.71 113.184 1274.17 114.368 1272.19 115.232C1270.2 116.064 1267.85 116.48 1265.13 116.48ZM1284.26 116V82.16H1299.28C1303 82.16 1305.83 83.056 1307.78 84.848C1309.73 86.64 1310.71 89.104 1310.71 92.24C1310.71 95.344 1309.73 97.808 1307.78 99.632C1305.83 101.456 1303 102.368 1299.28 102.368H1290.45V116H1284.26ZM1290.45 97.472H1298.56C1300.61 97.472 1302.15 97.024 1303.17 96.128C1304.2 95.2 1304.71 93.904 1304.71 92.24C1304.71 90.576 1304.2 89.296 1303.17 88.4C1302.15 87.472 1300.61 87.008 1298.56 87.008H1290.45V97.472ZM1091.35 236V202.16H1105.7C1109.79 202.16 1113.23 202.848 1116.02 204.224C1118.83 205.6 1120.96 207.552 1122.4 210.08C1123.84 212.576 1124.56 215.568 1124.56 219.056C1124.56 222.512 1123.84 225.504 1122.4 228.032C1120.96 230.56 1118.83 232.528 1116.02 233.936C1113.23 235.312 1109.79 236 1105.7 236H1091.35ZM1101.71 227.648H1105.07C1108.21 227.648 1110.53 226.944 1112.03 225.536C1113.54 224.128 1114.29 221.968 1114.29 219.056C1114.29 216.112 1113.54 213.952 1112.03 212.576C1110.53 211.2 1108.21 210.512 1105.07 210.512H1101.71V227.648ZM1138.53 236.576C1136.45 236.576 1134.6 236.064 1132.96 235.04C1131.36 234.016 1130.1 232.544 1129.17 230.624C1128.28 228.704 1127.83 226.416 1127.83 223.76C1127.83 221.104 1128.28 218.816 1129.17 216.896C1130.1 214.976 1131.36 213.504 1132.96 212.48C1134.6 211.456 1136.45 210.944 1138.53 210.944C1140.32 210.944 1141.97 211.36 1143.48 212.192C1145.01 213.024 1146 214.112 1146.45 215.456H1145.97L1146.55 211.52H1156.15C1156.02 212.672 1155.92 213.84 1155.86 215.024C1155.8 216.176 1155.76 217.328 1155.76 218.48V236H1145.88L1145.78 232.352H1146.36C1145.88 233.6 1144.88 234.624 1143.38 235.424C1141.91 236.192 1140.29 236.576 1138.53 236.576ZM1141.89 229.232C1143.08 229.232 1144.04 228.816 1144.77 227.984C1145.54 227.152 1145.92 225.744 1145.92 223.76C1145.92 221.776 1145.54 220.368 1144.77 219.536C1144.04 218.704 1143.08 218.288 1141.89 218.288C1140.71 218.288 1139.73 218.704 1138.96 219.536C1138.23 220.368 1137.86 221.776 1137.86 223.76C1137.86 225.744 1138.23 227.152 1138.96 227.984C1139.7 228.816 1140.68 229.232 1141.89 229.232ZM1174.06 236.576C1170.25 236.576 1167.41 235.712 1165.52 233.984C1163.63 232.224 1162.69 229.568 1162.69 226.016V218.816H1158.17V211.52H1162.69V206L1172.67 203.696V211.52H1178.33V218.816H1172.67V225.728C1172.67 226.976 1172.97 227.776 1173.58 228.128C1174.22 228.48 1174.93 228.656 1175.69 228.656C1176.24 228.656 1176.69 228.624 1177.04 228.56C1177.42 228.496 1177.85 228.384 1178.33 228.224V235.808C1177.57 236.128 1176.81 236.336 1176.08 236.432C1175.37 236.528 1174.7 236.576 1174.06 236.576ZM1190.89 236.576C1188.81 236.576 1186.95 236.064 1185.32 235.04C1183.72 234.016 1182.46 232.544 1181.53 230.624C1180.63 228.704 1180.19 226.416 1180.19 223.76C1180.19 221.104 1180.63 218.816 1181.53 216.896C1182.46 214.976 1183.72 213.504 1185.32 212.48C1186.95 211.456 1188.81 210.944 1190.89 210.944C1192.68 210.944 1194.33 211.36 1195.83 212.192C1197.37 213.024 1198.36 214.112 1198.81 215.456H1198.33L1198.91 211.52H1208.51C1208.38 212.672 1208.28 213.84 1208.22 215.024C1208.15 216.176 1208.12 217.328 1208.12 218.48V236H1198.23L1198.14 232.352H1198.71C1198.23 233.6 1197.24 234.624 1195.74 235.424C1194.27 236.192 1192.65 236.576 1190.89 236.576ZM1194.25 229.232C1195.43 229.232 1196.39 228.816 1197.13 227.984C1197.9 227.152 1198.28 225.744 1198.28 223.76C1198.28 221.776 1197.9 220.368 1197.13 219.536C1196.39 218.704 1195.43 218.288 1194.25 218.288C1193.07 218.288 1192.09 218.704 1191.32 219.536C1190.59 220.368 1190.22 221.776 1190.22 223.76C1190.22 225.744 1190.59 227.152 1191.32 227.984C1192.06 228.816 1193.03 229.232 1194.25 229.232ZM906.773 296.528C902.421 296.528 899.061 295.04 896.693 292.064C894.325 289.088 893.141 284.912 893.141 279.536C893.141 275.76 893.749 272.544 894.965 269.888C896.181 267.2 897.909 265.152 900.149 263.744C902.421 262.336 905.141 261.632 908.309 261.632C910.133 261.632 911.941 261.952 913.733 262.592C915.557 263.2 917.141 264.096 918.485 265.28L916.085 270.8C914.901 269.808 913.637 269.072 912.293 268.592C910.949 268.08 909.589 267.824 908.213 267.824C905.589 267.824 903.589 268.688 902.213 270.416C900.837 272.144 900.149 274.72 900.149 278.144V281.264H899.525C899.781 279.728 900.309 278.432 901.109 277.376C901.909 276.288 902.933 275.456 904.181 274.88C905.429 274.304 906.805 274.016 908.309 274.016C910.229 274.016 911.941 274.496 913.445 275.456C914.981 276.384 916.181 277.68 917.045 279.344C917.909 280.976 918.341 282.848 918.341 284.96C918.341 287.2 917.845 289.2 916.853 290.96C915.861 292.688 914.501 294.048 912.773 295.04C911.077 296.032 909.077 296.528 906.773 296.528ZM906.389 290.72C907.413 290.72 908.309 290.496 909.077 290.048C909.845 289.6 910.437 288.96 910.853 288.128C911.269 287.296 911.477 286.336 911.477 285.248C911.477 284.16 911.269 283.216 910.853 282.416C910.437 281.584 909.845 280.944 909.077 280.496C908.309 280.016 907.413 279.776 906.389 279.776C905.365 279.776 904.469 280.016 903.701 280.496C902.933 280.944 902.325 281.584 901.877 282.416C901.461 283.216 901.253 284.16 901.253 285.248C901.253 286.336 901.461 287.296 901.877 288.128C902.325 288.96 902.933 289.6 903.701 290.048C904.469 290.496 905.365 290.72 906.389 290.72ZM945.885 296.528C943.773 296.528 941.917 296.016 940.317 294.992C938.717 293.968 937.469 292.512 936.573 290.624C935.677 288.736 935.229 286.464 935.229 283.808C935.229 281.184 935.677 278.928 936.573 277.04C937.469 275.152 938.717 273.712 940.317 272.72C941.917 271.696 943.773 271.184 945.885 271.184C947.837 271.184 949.581 271.664 951.117 272.624C952.685 273.552 953.709 274.816 954.189 276.416H953.661L954.237 271.664H961.197C961.101 272.72 961.005 273.792 960.909 274.88C960.845 275.936 960.813 276.976 960.813 278V296H953.613L953.565 291.44H954.141C953.629 292.976 952.605 294.208 951.069 295.136C949.533 296.064 947.805 296.528 945.885 296.528ZM948.093 291.056C949.757 291.056 951.101 290.464 952.125 289.28C953.149 288.096 953.661 286.272 953.661 283.808C953.661 281.344 953.149 279.536 952.125 278.384C951.101 277.232 949.757 276.656 948.093 276.656C946.429 276.656 945.085 277.232 944.061 278.384C943.037 279.536 942.525 281.344 942.525 283.808C942.525 286.272 943.021 288.096 944.013 289.28C945.037 290.464 946.397 291.056 948.093 291.056ZM988.992 296.528C987.136 296.528 985.312 296.208 983.52 295.568C981.728 294.896 980.16 293.984 978.816 292.832L981.216 287.312C982.4 288.304 983.648 289.056 984.96 289.568C986.304 290.08 987.664 290.336 989.04 290.336C991.696 290.336 993.712 289.472 995.088 287.744C996.464 285.984 997.152 283.408 997.152 280.016V276.896H997.776C997.552 278.4 997.024 279.696 996.192 280.784C995.36 281.872 994.32 282.704 993.072 283.28C991.856 283.856 990.496 284.144 988.992 284.144C987.072 284.144 985.344 283.68 983.808 282.752C982.304 281.792 981.104 280.48 980.208 278.816C979.344 277.152 978.912 275.28 978.912 273.2C978.912 270.96 979.408 268.976 980.4 267.248C981.392 265.488 982.752 264.112 984.48 263.12C986.208 262.128 988.208 261.632 990.48 261.632C994.864 261.632 998.24 263.12 1000.61 266.096C1002.98 269.04 1004.16 273.216 1004.16 278.624C1004.16 282.4 1003.55 285.632 1002.34 288.32C1001.15 290.976 999.424 293.008 997.152 294.416C994.88 295.824 992.16 296.528 988.992 296.528ZM990.912 278.336C991.904 278.336 992.784 278.112 993.552 277.664C994.32 277.216 994.912 276.576 995.328 275.744C995.776 274.912 996 273.968 996 272.912C996 271.792 995.776 270.832 995.328 270.032C994.912 269.2 994.32 268.56 993.552 268.112C992.784 267.632 991.904 267.392 990.912 267.392C989.888 267.392 988.992 267.632 988.224 268.112C987.456 268.56 986.864 269.2 986.448 270.032C986.032 270.832 985.824 271.792 985.824 272.912C985.824 273.968 986.032 274.912 986.448 275.744C986.864 276.576 987.456 277.216 988.224 277.664C988.992 278.112 989.888 278.336 990.912 278.336ZM1032.18 296.528C1030.07 296.528 1028.2 296.016 1026.57 294.992C1024.97 293.968 1023.7 292.512 1022.78 290.624C1021.88 288.736 1021.43 286.464 1021.43 283.808C1021.43 281.184 1021.88 278.928 1022.78 277.04C1023.67 275.152 1024.94 273.712 1026.57 272.72C1028.2 271.696 1030.07 271.184 1032.18 271.184C1034.1 271.184 1035.82 271.648 1037.32 272.576C1038.86 273.472 1039.88 274.688 1040.39 276.224H1039.77V260.672H1047.02V296H1039.86V291.248H1040.49C1039.98 292.848 1038.95 294.128 1037.42 295.088C1035.88 296.048 1034.14 296.528 1032.18 296.528ZM1034.34 291.056C1036.01 291.056 1037.35 290.464 1038.38 289.28C1039.4 288.096 1039.91 286.272 1039.91 283.808C1039.91 281.344 1039.4 279.536 1038.38 278.384C1037.35 277.232 1036.01 276.656 1034.34 276.656C1032.68 276.656 1031.32 277.232 1030.26 278.384C1029.24 279.536 1028.73 281.344 1028.73 283.808C1028.73 286.272 1029.24 288.096 1030.26 289.28C1031.32 290.464 1032.68 291.056 1034.34 291.056ZM1065.2 296.528C1060.98 296.528 1057.68 295.392 1055.31 293.12C1052.94 290.848 1051.76 287.76 1051.76 283.856C1051.76 281.328 1052.26 279.12 1053.25 277.232C1054.27 275.344 1055.68 273.872 1057.47 272.816C1059.3 271.728 1061.42 271.184 1063.86 271.184C1066.26 271.184 1068.26 271.696 1069.86 272.72C1071.49 273.744 1072.7 275.184 1073.5 277.04C1074.34 278.864 1074.75 280.992 1074.75 283.424V285.104H1057.71V281.504H1069.47L1068.66 282.176C1068.66 280.16 1068.24 278.64 1067.41 277.616C1066.61 276.56 1065.44 276.032 1063.9 276.032C1062.21 276.032 1060.9 276.656 1059.97 277.904C1059.07 279.152 1058.62 280.944 1058.62 283.28V284.048C1058.62 286.416 1059.2 288.176 1060.35 289.328C1061.54 290.48 1063.23 291.056 1065.44 291.056C1066.75 291.056 1067.98 290.896 1069.14 290.576C1070.32 290.224 1071.44 289.68 1072.5 288.944L1074.51 293.744C1073.3 294.64 1071.89 295.328 1070.29 295.808C1068.72 296.288 1067.02 296.528 1065.2 296.528ZM1094.53 304.976C1093.95 304.976 1093.27 304.944 1092.47 304.88C1091.67 304.816 1090.85 304.704 1090.02 304.544V298.688C1090.66 298.816 1091.27 298.912 1091.84 298.976C1092.42 299.04 1092.88 299.072 1093.23 299.072C1094.71 299.072 1095.75 298.656 1096.35 297.824C1096.96 296.992 1097.27 295.648 1097.27 293.792V262.16H1104.75V293.792C1104.75 296.288 1104.4 298.368 1103.7 300.032C1103.03 301.696 1101.94 302.928 1100.43 303.728C1098.96 304.56 1096.99 304.976 1094.53 304.976ZM1120.01 296.528C1116.97 296.528 1114.72 295.696 1113.24 294.032C1111.77 292.336 1111.04 289.776 1111.04 286.352V271.664H1118.28V286.352C1118.28 287.888 1118.59 289.024 1119.2 289.76C1119.84 290.496 1120.81 290.864 1122.12 290.864C1123.56 290.864 1124.75 290.368 1125.68 289.376C1126.64 288.352 1127.12 286.992 1127.12 285.296V271.664H1134.36V296H1127.31V291.344H1127.98C1127.24 292.976 1126.19 294.256 1124.81 295.184C1123.47 296.08 1121.87 296.528 1120.01 296.528ZM1140.34 296V260.672H1147.58V296H1140.34ZM1153.51 296V260.672H1160.76V276.224H1160.04C1160.8 274.592 1161.94 273.344 1163.44 272.48C1164.95 271.616 1166.68 271.184 1168.63 271.184C1171.48 271.184 1173.6 272.016 1175.01 273.68C1176.42 275.312 1177.12 277.824 1177.12 281.216V296H1169.88V281.552C1169.88 279.856 1169.56 278.64 1168.92 277.904C1168.31 277.168 1167.35 276.8 1166.04 276.8C1164.44 276.8 1163.16 277.296 1162.2 278.288C1161.24 279.28 1160.76 280.608 1160.76 282.272V296H1153.51ZM1194.46 296.528C1191.87 296.528 1189.62 296.016 1187.7 294.992C1185.81 293.936 1184.34 292.464 1183.28 290.576C1182.26 288.688 1181.74 286.432 1181.74 283.808C1181.74 281.216 1182.26 278.976 1183.28 277.088C1184.34 275.2 1185.81 273.744 1187.7 272.72C1189.62 271.696 1191.87 271.184 1194.46 271.184C1197.06 271.184 1199.31 271.696 1201.23 272.72C1203.15 273.744 1204.62 275.2 1205.65 277.088C1206.7 278.976 1207.23 281.216 1207.23 283.808C1207.23 286.432 1206.7 288.688 1205.65 290.576C1204.62 292.464 1203.15 293.936 1201.23 294.992C1199.31 296.016 1197.06 296.528 1194.46 296.528ZM1194.46 291.056C1196.13 291.056 1197.44 290.464 1198.4 289.28C1199.39 288.096 1199.89 286.272 1199.89 283.808C1199.89 281.344 1199.39 279.536 1198.4 278.384C1197.44 277.232 1196.13 276.656 1194.46 276.656C1192.8 276.656 1191.47 277.232 1190.48 278.384C1189.52 279.536 1189.04 281.344 1189.04 283.808C1189.04 286.272 1189.52 288.096 1190.48 289.28C1191.47 290.464 1192.8 291.056 1194.46 291.056ZM1235.01 296.528C1232.9 296.528 1231.03 296.016 1229.4 294.992C1227.8 293.968 1226.53 292.512 1225.6 290.624C1224.71 288.736 1224.26 286.464 1224.26 283.808C1224.26 281.184 1224.71 278.928 1225.6 277.04C1226.5 275.152 1227.76 273.712 1229.4 272.72C1231.03 271.696 1232.9 271.184 1235.01 271.184C1236.93 271.184 1238.64 271.648 1240.15 272.576C1241.68 273.472 1242.71 274.688 1243.22 276.224H1242.6V260.672H1249.84V296H1242.69V291.248H1243.32C1242.8 292.848 1241.78 294.128 1240.24 295.088C1238.71 296.048 1236.96 296.528 1235.01 296.528ZM1237.17 291.056C1238.84 291.056 1240.18 290.464 1241.2 289.28C1242.23 288.096 1242.74 286.272 1242.74 283.808C1242.74 281.344 1242.23 279.536 1241.2 278.384C1240.18 277.232 1238.84 276.656 1237.17 276.656C1235.51 276.656 1234.15 277.232 1233.09 278.384C1232.07 279.536 1231.56 281.344 1231.56 283.808C1231.56 286.272 1232.07 288.096 1233.09 289.28C1234.15 290.464 1235.51 291.056 1237.17 291.056ZM1268.03 296.528C1263.8 296.528 1260.51 295.392 1258.14 293.12C1255.77 290.848 1254.59 287.76 1254.59 283.856C1254.59 281.328 1255.08 279.12 1256.08 277.232C1257.1 275.344 1258.51 273.872 1260.3 272.816C1262.12 271.728 1264.25 271.184 1266.68 271.184C1269.08 271.184 1271.08 271.696 1272.68 272.72C1274.32 273.744 1275.53 275.184 1276.33 277.04C1277.16 278.864 1277.58 280.992 1277.58 283.424V285.104H1260.54V281.504H1272.3L1271.48 282.176C1271.48 280.16 1271.07 278.64 1270.24 277.616C1269.44 276.56 1268.27 276.032 1266.73 276.032C1265.04 276.032 1263.72 276.656 1262.8 277.904C1261.9 279.152 1261.45 280.944 1261.45 283.28V284.048C1261.45 286.416 1262.03 288.176 1263.18 289.328C1264.36 290.48 1266.06 291.056 1268.27 291.056C1269.58 291.056 1270.81 290.896 1271.96 290.576C1273.15 290.224 1274.27 289.68 1275.32 288.944L1277.34 293.744C1276.12 294.64 1274.72 295.328 1273.12 295.808C1271.55 296.288 1269.85 296.528 1268.03 296.528ZM1296.25 296V290.48L1307.01 279.296C1308.35 277.888 1309.33 276.64 1309.93 275.552C1310.54 274.464 1310.85 273.344 1310.85 272.192C1310.85 270.752 1310.38 269.664 1309.45 268.928C1308.53 268.192 1307.2 267.824 1305.47 267.824C1304.03 267.824 1302.61 268.096 1301.2 268.64C1299.82 269.152 1298.46 269.952 1297.12 271.04L1294.77 265.568C1296.17 264.352 1297.92 263.392 1300 262.688C1302.08 261.984 1304.24 261.632 1306.48 261.632C1310.25 261.632 1313.15 262.48 1315.17 264.176C1317.18 265.84 1318.19 268.224 1318.19 271.328C1318.19 273.408 1317.71 275.392 1316.75 277.28C1315.79 279.168 1314.24 281.168 1312.09 283.28L1303.45 291.776V289.856H1319.49V296H1296.25ZM1335.93 296.528C1331.87 296.528 1328.73 295.008 1326.52 291.968C1324.35 288.896 1323.26 284.576 1323.26 279.008C1323.26 273.344 1324.35 269.04 1326.52 266.096C1328.73 263.12 1331.87 261.632 1335.93 261.632C1340.03 261.632 1343.16 263.12 1345.34 266.096C1347.52 269.04 1348.6 273.328 1348.6 278.96C1348.6 284.56 1347.52 288.896 1345.34 291.968C1343.16 295.008 1340.03 296.528 1335.93 296.528ZM1335.93 290.48C1337.79 290.48 1339.16 289.568 1340.06 287.744C1340.99 285.888 1341.45 282.96 1341.45 278.96C1341.45 274.96 1340.99 272.08 1340.06 270.32C1339.16 268.56 1337.79 267.68 1335.93 267.68C1334.08 267.68 1332.68 268.56 1331.76 270.32C1330.86 272.08 1330.41 274.944 1330.41 278.912C1330.41 282.944 1330.88 285.888 1331.8 287.744C1332.73 289.568 1334.11 290.48 1335.93 290.48ZM1353.82 296V290.48L1364.57 279.296C1365.91 277.888 1366.89 276.64 1367.5 275.552C1368.1 274.464 1368.41 273.344 1368.41 272.192C1368.41 270.752 1367.94 269.664 1367.02 268.928C1366.09 268.192 1364.76 267.824 1363.03 267.824C1361.59 267.824 1360.17 268.096 1358.76 268.64C1357.38 269.152 1356.02 269.952 1354.68 271.04L1352.33 265.568C1353.74 264.352 1355.48 263.392 1357.56 262.688C1359.64 261.984 1361.8 261.632 1364.04 261.632C1367.82 261.632 1370.71 262.48 1372.73 264.176C1374.74 265.84 1375.75 268.224 1375.75 271.328C1375.75 273.408 1375.27 275.392 1374.31 277.28C1373.35 279.168 1371.8 281.168 1369.66 283.28L1361.02 291.776V289.856H1377.05V296H1353.82ZM1395.32 296V289.808H1380.82V284.624L1396.47 262.16H1402.52V284.192H1407.13V289.808H1402.52V296H1395.32ZM1395.32 284.192V270.992H1396.52L1386.2 285.92V284.192H1395.32Z" fill="#F4F6ED"/>
</g>
<rect y="441" width="670" height="147" rx="40" fill="#565FF2"/>
<rect x="531" y="441" width="670" height="147" rx="40" fill="#0F0F0F"/>
<rect x="1062" y="588" width="133" height="596" rx="40" transform="rotate(-90 1062 588)" fill="#CAFF54"/>
<rect x="1519" y="588" width="225" height="217" rx="40" transform="rotate(-90 1519 588)" fill="#CAFF54"/>
</g>
<defs>
<filter id="filter0_di_211_2" x="423" y="-83" width="1453" height="454" filterUnits="userSpaceOnUse" color-interpolation-filters="sRGB">
<feFlood flood-opacity="0" result="BackgroundImageFix"/>
<feColorMatrix in="SourceAlpha" type="matrix" values="0 0 0 0 0 0 0 0 0 0 0 0 0 0 0 0 0 0 127 0" result="hardAlpha"/>
<feOffset dy="4"/>
<feGaussianBlur stdDeviation="2"/>
<feComposite in2="hardAlpha" operator="out"/>
<feColorMatrix type="matrix" values="0 0 0 0 0 0 0 0 0 0 0 0 0 0 0 0 0 0 0.25 0"/>
<feBlend mode="normal" in2="BackgroundImageFix" result="effect1_dropShadow_211_2"/>
<feBlend mode="normal" in="SourceGraphic" in2="effect1_dropShadow_211_2" result="shape"/>
<feColorMatrix in="SourceAlpha" type="matrix" values="0 0 0 0 0 0 0 0 0 0 0 0 0 0 0 0 0 0 127 0" result="hardAlpha"/>
<feOffset dy="4"/>
<feGaussianBlur stdDeviation="2"/>
<feComposite in2="hardAlpha" operator="arithmetic" k2="-1" k3="1"/>
<feColorMatrix type="matrix" values="0 0 0 0 0 0 0 0 0 0 0 0 0 0 0 0 0 0 0.25 0"/>
<feBlend mode="normal" in2="shape" result="effect2_innerShadow_211_2"/>
</filter>
<clipPath id="clip0_211_2">
<rect width="1875" height="588" fill="white"/>
</clipPath>
</defs>
</svg>
