<svg
  viewBox="0 0 134.4933 50.195145"
  version="1.1"
  id="2024_logo"
  xml:space="preserve"
  xmlns:inkscape="http://www.inkscape.org/namespaces/inkscape"
  xmlns:sodipodi="http://sodipodi.sourceforge.net/DTD/sodipodi-0.dtd"
  xmlns="http://www.w3.org/2000/svg"
  xmlns:svg="http://www.w3.org/2000/svg"><sodipodi:namedview
     id="namedview7"
     pagecolor="#ffffff"
     bordercolor="#000000"
     borderopacity="0.25"
     inkscape:showpageshadow="2"
     inkscape:pageopacity="0.0"
     inkscape:pagecheckerboard="0"
     inkscape:deskcolor="#d1d1d1"
     inkscape:document-units="mm"
     showgrid="false" /><defs
     id="defs2" /><g
     inkscape:label="Layer 1"
     inkscape:groupmode="layer"
     id="layer1"
     transform="translate(-23.855088,-168.67073)">
     <path
       d="m 42.626104,175.28532 c 1.491615,-0.22326 2.484199,-0.96494 3.439583,0.52916 1.095084,-0.62888 1.126993,-1.21351 0.79375,-2.38125 0.782347,-0.50802 0.762741,-0.97787 0.529167,-1.85208 l -1.058334,0.52917 -0.79375,-3.43959 c -2.31394,0.70431 -3.29811,4.42066 -2.910416,6.61459 m -6.879167,-3.96875 0.529166,1.32291 3.175,-0.26458 c -1.071774,2.19379 -2.788734,2.46745 -2.116666,5.29167 l 4.7625,-0.52917 c -0.411454,-1.88555 -2.219457,-1.08897 -3.704167,-1.05833 0.757846,-0.69858 1.850073,-1.38385 2.221389,-2.38514 1.168823,-3.15177 -3.074353,-3.13388 -4.867222,-2.37736 m -4.999329,0.1964 c -3.482314,1.4714 -0.0073,7.83293 3.626406,6.22178 3.12158,-1.38409 -0.382535,-7.59241 -3.626406,-6.22178 m 13.995162,0.0682 c 0.207936,0.98576 0.181293,1.4591 -0.79375,1.85208 l 0.79375,-1.85208 m -20.637501,4.23333 h 0.264584 l 2.38125,-1.5875 c -0.509561,2.53378 -2.431288,3.75994 -1.5875,6.61458 l 4.497917,-2.11666 -0.529167,-1.32292 -2.910417,1.05833 c 0.487125,-1.05105 1.426581,-1.82951 1.848618,-2.91041 1.511935,-3.87223 -5.617563,-3.17593 -3.965285,0.26458 m 7.708239,-3.03149 c 1.747467,-0.3456 2.995243,3.3845 1.248596,3.7256 -1.838061,0.35899 -3.010271,-3.37717 -1.248596,-3.7256 m 69.814682,14.93774 c 0,-2.03898 0.87048,-6.67046 -0.27199,-8.38256 -0.72813,-1.09114 -4.8432,-1.03108 -5.3893,0.21966 -0.579173,1.32676 -0.159544,3.5577 -0.159544,4.9879 v 11.64167 c 0,1.71159 -0.917839,7.00405 1.327944,7.36918 0.982133,0.15954 3.3102,0.37332 4.06876,-0.38497 1.36235,-1.36261 0.42413,-6.96463 0.42413,-8.83629 2.7e-4,-2.63049 1.49014,-4.67358 4.49792,-3.85403 4.89109,1.33265 0.97393,9.31662 2.54079,12.50114 0.51409,1.04458 4.4876,0.93848 5.23717,0.18918 1.10807,-1.10834 0.42412,-4.97285 0.42412,-6.45504 0,-2.56075 0.39476,-5.56893 -0.79375,-7.9375 -2.32648,-4.63648 -8.54868,-4.07194 -11.90625,-1.05834 m -60.325003,9.26042 c 2.529496,0 5.205968,0.27041 7.672917,-0.36459 5.71209,-1.47056 8.212932,-9.54937 3.940969,-13.8982 -2.810669,-2.86115 -7.114593,-2.67055 -10.820136,-2.67055 -1.469866,0 -5.671529,-0.71561 -6.607228,0.64389 -0.561949,0.81648 -0.271939,2.38379 -0.271939,3.32487 v 8.46666 7.67292 c 0,0.87471 -0.259636,2.33151 0.424233,3.01546 0.547899,0.54768 1.51802,0.4228 2.2216,0.42412 4.414997,0.009 3.439584,-3.02021 3.439584,-6.61458 M 82.049022,190.102 c 0,3.33193 -1.132946,9.17364 1.162579,11.88138 1.477169,1.74255 8.46799,3.4798 9.336618,0.27491 1.264443,-4.66434 -3.047207,-1.56845 -4.406371,-3.98304 -1.067594,-1.89653 -0.271992,-6.01848 -0.271992,-8.17325 1.083469,0 2.947194,0.3537 3.884613,-0.27193 0.867304,-0.57881 0.971814,-3.2911 0.1524,-3.95404 -0.844021,-0.68289 -3.001963,-0.27194 -4.037013,-0.27194 0,-2.04124 -0.542925,-6.23547 -3.800211,-3.9614 -1.058598,0.73906 -1.151996,2.40626 -1.971675,3.34812 -0.702204,0.80698 -2.071423,0.38433 -2.535237,1.44621 -0.938478,2.15011 0.438943,3.6408 2.486289,3.66498 m -40.745835,2.38125 v -7.67291 c 1.871874,0 4.355809,-0.4231 6.0842,0.41606 2.450994,1.18996 2.540423,5.25573 0.25437,6.66726 -1.72458,1.06484 -4.394729,0.58959 -6.33857,0.58959 m 83.872923,-7.02759 c -7.1038,1.10953 -11.16965,9.71947 -5.96159,15.44822 2.36008,2.59636 6.31084,3.36868 9.66576,2.84031 6.54526,-1.03082 10.3886,-8.73416 6.40291,-14.43594 -2.24419,-3.21048 -6.33465,-4.44179 -10.10708,-3.85259 m 20.37292,2.26509 c -0.11801,-2.14839 -4.60957,-3.494 -5.62451,-1.50338 -0.51965,1.01944 -0.19633,2.76955 -0.19633,3.88463 v 8.73125 c 0,1.16523 -0.36433,3.08425 0.15955,4.1492 0.50191,1.0197 4.21058,0.90011 5.04798,0.34131 0.95303,-0.63579 0.61331,-2.4556 0.61331,-3.43217 0,-3.48959 -1.43113,-10.03253 3.96875,-9.49518 5.46999,0.5443 1.5621,9.52137 3.06996,12.58604 0.48075,0.97684 4.47913,1.00436 5.12471,0.18918 0.9234,-1.16576 0.272,-4.74372 0.272,-6.19046 0,-2.57529 0.52757,-5.80734 -0.57918,-8.20208 -2.1889,-4.73618 -8.56959,-4.00841 -11.85624,-1.05834 m -75.141675,12.17084 c -0.0029,4.47437 -3.092715,6.55717 -7.408334,5.75177 -0.914929,-0.17065 -4.087019,-1.63247 -4.602956,-0.63579 -1.167342,2.2561 0.418835,4.20132 2.48629,4.70032 3.392752,0.81915 7.659423,0.86519 10.847917,-0.73025 5.673196,-2.83871 4.497917,-10.15814 4.497917,-15.43605 0,-1.57231 0.81571,-6.71193 -0.613305,-7.66556 -1.075266,-0.71758 -4.724929,-0.64881 -5.123391,0.8019 -0.91149,3.31925 1.981993,11.71479 -4.580997,10.199 -4.454789,-1.02897 -1.29196,-7.57717 -2.541852,-10.43991 -0.529166,-1.21171 -4.374356,-1.27148 -5.237163,-0.4087 -1.07897,1.07913 -0.424127,4.75208 -0.424127,6.19035 0,2.18403 -0.285485,4.5892 0.706438,6.61432 2.409825,4.92072 8.4455,3.74491 11.993563,1.0586 m 55.298985,-9.68526 c 5.80178,-1.34869 7.34906,8.03241 2.1156,9.27939 -5.35966,1.27714 -6.9805,-8.14851 -2.1156,-9.27939 m -8.46773,14.97692 v 5.02709 c -0.71305,-0.34317 -1.31577,-0.51197 -2.11667,-0.52414 -7.04453,-0.10663 -3.50705,12.18485 1.85209,8.19705 h 0.26458 l 3.175,0.52917 -0.26458,-9.26042 -0.27199,-3.54462 -2.63843,-0.42413 m 25.4,2.11667 v 2.38125 h -1.32292 v 2.64583 h 1.32292 c 0,4.19735 1.31525,6.96781 6.08542,6.08542 l -0.26458,-2.64583 c -2.55826,-0.009 -2.91016,-1.07077 -2.91042,-3.43959 h 2.38125 c -0.002,-2.02591 -0.27173,-2.63842 -2.38125,-2.64583 v -2.64583 l -2.91042,0.26458 m -46.56667,7.9375 v 0.52917 l -4.497917,-0.26459 -0.264584,2.64584 c 1.8415,0.34184 4.616715,0.73633 6.338359,-0.18204 1.932781,-1.03108 1.568979,-3.52054 -0.254265,-4.42991 -0.89482,-0.44636 -1.957652,-0.64003 -2.909093,-0.9443 V 212.327 h 3.96875 l 0.264583,-2.38125 c -1.669785,-0.31009 -4.237567,-0.7186 -5.815806,0.0841 -1.43854,0.73184 -1.831976,2.85618 -0.473869,3.88594 0.990071,0.75062 2.478617,0.94906 3.643842,1.32159 m 4.23333,-5.55625 c 0,3.64437 0.15743,11.97266 6.08542,7.9375 0.26803,1.25042 2.11799,0.79375 3.175,0.79375 l -0.52916,-8.73125 h -2.64584 c 0,1.50257 0.38021,3.6449 -0.34872,5.01147 -0.48392,0.90752 -1.64782,1.34753 -2.40215,0.46038 -1.0668,-1.25466 0.51938,-4.54581 -1.03743,-5.31231 -0.64056,-0.31538 -1.60338,-0.15954 -2.29712,-0.15954 m 29.63334,8.46667 -0.52917,-2.64584 c -1.68301,0.21273 -3.04403,0.51647 -4.49791,-0.52916 1.22581,-0.0526 4.48548,0.10874 5.28399,-0.94959 2.24922,-2.98106 -3.77454,-4.90458 -5.81289,-4.07511 -2.96096,1.20491 -3.27396,5.9346 -0.78264,7.76261 1.87801,1.37768 4.23624,0.82867 6.33862,0.43709 m 6.87917,-2.91042 v 0.52917 l -4.49792,-0.26459 c -0.054,0.68475 -0.44714,1.85367 0.0111,2.44952 2.21906,2.88316 11.18235,-1.73514 5.8084,-4.41563 -0.89482,-0.44636 -1.95765,-0.64003 -2.90909,-0.9443 v -0.26459 h 3.96875 l 0.26458,-2.38125 c -1.75524,-0.32596 -4.72043,-0.80248 -6.28967,0.2884 -3.51658,2.44449 1.91082,4.54369 3.64384,5.00327 m 20.6375,2.91042 -0.52917,-2.64584 c -1.47187,0.27332 -3.10224,0.62601 -4.23333,-0.52916 1.14062,-0.09 4.5757,0.0804 5.26044,-0.9525 1.98676,-2.99747 -4.06267,-4.88818 -6.05313,-4.0722 -2.79771,1.1467 -3.24353,5.65679 -1.03082,7.56628 1.86267,1.60708 4.41272,1.04299 6.58601,0.63342 m -42.30476,-5.656 c 1.87007,-0.69056 2.53233,2.51222 0.99086,3.10991 -1.89415,0.73449 -2.79056,-2.44554 -0.99086,-3.10991 m 12.14226,0.0998 v 0.26458 l -2.11667,0.26458 c 0.55404,-0.85434 1.18348,-0.79507 2.11667,-0.52916 m 27.78125,0 v 0.26458 l -2.38125,0.26458 c 0.61807,-0.87471 1.41129,-0.80724 2.38125,-0.52916 z"
       id="path246"
       inkscape:export-filename="2024_logo.svg"
       inkscape:export-xdpi="96"
       inkscape:export-ydpi="96" /></g></svg>